<mxfile host="drawio-plugin" modified="2021-04-04T12:53:34.129Z" agent="5.0 (Windows NT 6.2; Win64; x64) AppleWebKit/537.36 (KHTML, like Gecko) Chrome/84.0.4147.105 Safari/537.36" etag="B1LydGViMau7NBdCTeXK" version="13.7.9" type="embed"><diagram id="R2lEEEUBdFMjLlhIrx00" name="Page-1"><mxGraphModel dx="843" dy="363" grid="1" gridSize="10" guides="0" tooltips="1" connect="1" arrows="1" fold="1" page="1" pageScale="1" pageWidth="1169" pageHeight="1654" background="none" math="0" shadow="1" extFonts="Permanent Marker^https://fonts.googleapis.com/css?family=Permanent+Marker"><root><mxCell id="0"/><mxCell id="1" parent="0"/><mxCell id="NSmlfN2d5O3RcSM8qMXl-12" value="UserAuthority" style="whiteSpace=wrap;html=1;align=center;fillColor=#dae8fc;strokeColor=#6c8ebf;" parent="1" vertex="1"><mxGeometry x="560" y="291" width="100" height="40" as="geometry"/></mxCell><mxCell id="NSmlfN2d5O3RcSM8qMXl-13" value="Autority" style="whiteSpace=wrap;html=1;align=center;fillColor=#dae8fc;strokeColor=#6c8ebf;" parent="1" vertex="1"><mxGeometry x="710" y="231" width="100" height="40" as="geometry"/></mxCell><mxCell id="NSmlfN2d5O3RcSM8qMXl-14" value="User" style="whiteSpace=wrap;html=1;align=center;fillColor=#dae8fc;strokeColor=#6c8ebf;" parent="1" vertex="1"><mxGeometry x="400" y="200" width="100" height="40" as="geometry"/></mxCell><mxCell id="NSmlfN2d5O3RcSM8qMXl-15" value="Speciality" style="whiteSpace=wrap;html=1;align=center;gradientColor=#ffa500;fillColor=#ffcd28;strokeColor=#d79b00;" parent="1" vertex="1"><mxGeometry x="560" y="401" width="100" height="40" as="geometry"/></mxCell><mxCell id="NSmlfN2d5O3RcSM8qMXl-16" value="ContactDetails" style="whiteSpace=wrap;html=1;align=center;gradientColor=#ffa500;fillColor=#ffcd28;strokeColor=#d79b00;" parent="1" vertex="1"><mxGeometry x="200" y="370" width="100" height="40" as="geometry"/></mxCell><mxCell id="NSmlfN2d5O3RcSM8qMXl-17" value="VeterinaryDoctor" style="whiteSpace=wrap;html=1;align=center;gradientColor=#ffa500;fillColor=#ffcd28;strokeColor=#d79b00;" parent="1" vertex="1"><mxGeometry x="370" y="401" width="100" height="40" as="geometry"/></mxCell><mxCell id="NSmlfN2d5O3RcSM8qMXl-18" value="Employee" style="whiteSpace=wrap;html=1;align=center;gradientColor=#ffa500;fillColor=#ffcd28;strokeColor=#d79b00;" parent="1" vertex="1"><mxGeometry x="360" y="311" width="100" height="40" as="geometry"/></mxCell><mxCell id="NSmlfN2d5O3RcSM8qMXl-19" value="Owner" style="whiteSpace=wrap;html=1;align=center;gradientColor=#ffa500;fillColor=#ffcd28;strokeColor=#d79b00;" parent="1" vertex="1"><mxGeometry x="40" y="311" width="100" height="40" as="geometry"/></mxCell><mxCell id="NSmlfN2d5O3RcSM8qMXl-20" value="Person" style="whiteSpace=wrap;html=1;align=center;gradientColor=#ffa500;fillColor=#ffcd28;strokeColor=#d79b00;" parent="1" vertex="1"><mxGeometry x="210" y="200" width="100" height="40" as="geometry"/></mxCell><mxCell id="NSmlfN2d5O3RcSM8qMXl-22" value="" style="endArrow=classic;html=1;exitX=0.584;exitY=-0.035;exitDx=0;exitDy=0;exitPerimeter=0;entryX=0.5;entryY=1;entryDx=0;entryDy=0;edgeStyle=orthogonalEdgeStyle;" parent="1" source="NSmlfN2d5O3RcSM8qMXl-19" target="NSmlfN2d5O3RcSM8qMXl-20" edge="1"><mxGeometry width="50" height="50" relative="1" as="geometry"><mxPoint x="280" y="501" as="sourcePoint"/><mxPoint x="290" y="471" as="targetPoint"/><Array as="points"><mxPoint x="98" y="280"/><mxPoint x="260" y="280"/></Array></mxGeometry></mxCell><mxCell id="NSmlfN2d5O3RcSM8qMXl-23" value="" style="endArrow=classic;html=1;exitX=0.5;exitY=0;exitDx=0;exitDy=0;entryX=0.5;entryY=1;entryDx=0;entryDy=0;edgeStyle=orthogonalEdgeStyle;" parent="1" source="NSmlfN2d5O3RcSM8qMXl-17" target="NSmlfN2d5O3RcSM8qMXl-18" edge="1"><mxGeometry width="50" height="50" relative="1" as="geometry"><mxPoint x="188.4000000000001" y="359.6" as="sourcePoint"/><mxPoint x="320" y="321" as="targetPoint"/></mxGeometry></mxCell><mxCell id="NSmlfN2d5O3RcSM8qMXl-24" value="" style="endArrow=classic;html=1;exitX=0.5;exitY=0;exitDx=0;exitDy=0;entryX=0.5;entryY=1;entryDx=0;entryDy=0;edgeStyle=orthogonalEdgeStyle;" parent="1" source="NSmlfN2d5O3RcSM8qMXl-18" target="NSmlfN2d5O3RcSM8qMXl-20" edge="1"><mxGeometry width="50" height="50" relative="1" as="geometry"><mxPoint x="148.4000000000001" y="329.6" as="sourcePoint"/><mxPoint x="280" y="291" as="targetPoint"/><Array as="points"><mxPoint x="410" y="280"/><mxPoint x="260" y="280"/></Array></mxGeometry></mxCell><mxCell id="NSmlfN2d5O3RcSM8qMXl-25" value="" style="edgeStyle=orthogonalEdgeStyle;fontSize=12;html=1;endArrow=ERoneToMany;exitX=1;exitY=0.5;exitDx=0;exitDy=0;entryX=0;entryY=0.5;entryDx=0;entryDy=0;" parent="1" source="NSmlfN2d5O3RcSM8qMXl-14" target="NSmlfN2d5O3RcSM8qMXl-12" edge="1"><mxGeometry width="100" height="100" relative="1" as="geometry"><mxPoint x="510" y="371" as="sourcePoint"/><mxPoint x="610" y="271" as="targetPoint"/></mxGeometry></mxCell><mxCell id="NSmlfN2d5O3RcSM8qMXl-27" value="" style="edgeStyle=orthogonalEdgeStyle;fontSize=12;html=1;endArrow=ERoneToMany;exitX=0;exitY=0.5;exitDx=0;exitDy=0;entryX=1;entryY=0.5;entryDx=0;entryDy=0;" parent="1" source="NSmlfN2d5O3RcSM8qMXl-13" target="NSmlfN2d5O3RcSM8qMXl-12" edge="1"><mxGeometry width="100" height="100" relative="1" as="geometry"><mxPoint x="560" y="261" as="sourcePoint"/><mxPoint x="620" y="311" as="targetPoint"/></mxGeometry></mxCell><mxCell id="NSmlfN2d5O3RcSM8qMXl-28" style="edgeStyle=orthogonalEdgeStyle;rounded=0;orthogonalLoop=1;jettySize=auto;html=1;exitX=0.5;exitY=1;exitDx=0;exitDy=0;" parent="1" source="NSmlfN2d5O3RcSM8qMXl-13" target="NSmlfN2d5O3RcSM8qMXl-13" edge="1"><mxGeometry relative="1" as="geometry"/></mxCell><mxCell id="NSmlfN2d5O3RcSM8qMXl-29" value="" style="edgeStyle=entityRelationEdgeStyle;fontSize=12;html=1;endArrow=ERmandOne;startArrow=ERmandOne;exitX=1;exitY=0.5;exitDx=0;exitDy=0;entryX=0;entryY=0.5;entryDx=0;entryDy=0;" parent="1" source="NSmlfN2d5O3RcSM8qMXl-20" target="NSmlfN2d5O3RcSM8qMXl-14" edge="1"><mxGeometry width="100" height="100" relative="1" as="geometry"><mxPoint x="420" y="461" as="sourcePoint"/><mxPoint x="520" y="361" as="targetPoint"/></mxGeometry></mxCell><mxCell id="NSmlfN2d5O3RcSM8qMXl-30" value="" style="edgeStyle=entityRelationEdgeStyle;fontSize=12;html=1;endArrow=ERoneToMany;startArrow=ERoneToMany;exitX=1;exitY=0.5;exitDx=0;exitDy=0;entryX=0;entryY=0.5;entryDx=0;entryDy=0;" parent="1" source="NSmlfN2d5O3RcSM8qMXl-17" target="NSmlfN2d5O3RcSM8qMXl-15" edge="1"><mxGeometry width="100" height="100" relative="1" as="geometry"><mxPoint x="430" y="511" as="sourcePoint"/><mxPoint x="530" y="411" as="targetPoint"/></mxGeometry></mxCell><mxCell id="NSmlfN2d5O3RcSM8qMXl-31" value="" style="edgeStyle=orthogonalEdgeStyle;fontSize=12;html=1;endArrow=ERmandOne;startArrow=ERmandOne;exitX=1;exitY=0.5;exitDx=0;exitDy=0;entryX=0;entryY=0.5;entryDx=0;entryDy=0;" parent="1" source="NSmlfN2d5O3RcSM8qMXl-16" target="NSmlfN2d5O3RcSM8qMXl-18" edge="1"><mxGeometry width="100" height="100" relative="1" as="geometry"><mxPoint x="330" y="451" as="sourcePoint"/><mxPoint x="430" y="351" as="targetPoint"/></mxGeometry></mxCell><mxCell id="NSmlfN2d5O3RcSM8qMXl-32" value="" style="edgeStyle=orthogonalEdgeStyle;fontSize=12;html=1;endArrow=ERmandOne;startArrow=ERmandOne;exitX=1;exitY=0.5;exitDx=0;exitDy=0;entryX=0;entryY=0.5;entryDx=0;entryDy=0;" parent="1" source="NSmlfN2d5O3RcSM8qMXl-19" target="NSmlfN2d5O3RcSM8qMXl-16" edge="1"><mxGeometry width="100" height="100" relative="1" as="geometry"><mxPoint x="90" y="491" as="sourcePoint"/><mxPoint x="170" y="411" as="targetPoint"/></mxGeometry></mxCell><mxCell id="NSmlfN2d5O3RcSM8qMXl-34" value="Address" style="whiteSpace=wrap;html=1;align=center;gradientColor=#7ea6e0;fillColor=#dae8fc;strokeColor=#6c8ebf;shadow=1;glass=0;sketch=0;rounded=0;" parent="1" vertex="1"><mxGeometry x="210" y="120" width="100" height="40" as="geometry"/></mxCell><mxCell id="NSmlfN2d5O3RcSM8qMXl-35" value="HomeAddress" style="whiteSpace=wrap;html=1;align=center;gradientColor=#7ea6e0;fillColor=#dae8fc;strokeColor=#6c8ebf;" parent="1" vertex="1"><mxGeometry x="100" y="40" width="100" height="40" as="geometry"/></mxCell><mxCell id="NSmlfN2d5O3RcSM8qMXl-36" value="BusinessAddress" style="whiteSpace=wrap;html=1;align=center;gradientColor=#7ea6e0;fillColor=#dae8fc;strokeColor=#6c8ebf;" parent="1" vertex="1"><mxGeometry x="320" y="40" width="100" height="40" as="geometry"/></mxCell><mxCell id="NSmlfN2d5O3RcSM8qMXl-37" value="" style="endArrow=classic;html=1;exitX=1;exitY=0.5;exitDx=0;exitDy=0;entryX=0.5;entryY=0;entryDx=0;entryDy=0;edgeStyle=orthogonalEdgeStyle;" parent="1" source="NSmlfN2d5O3RcSM8qMXl-35" target="NSmlfN2d5O3RcSM8qMXl-34" edge="1"><mxGeometry width="50" height="50" relative="1" as="geometry"><mxPoint x="169.2000000000001" y="89.60000000000002" as="sourcePoint"/><mxPoint x="330.8" y="50" as="targetPoint"/></mxGeometry></mxCell><mxCell id="NSmlfN2d5O3RcSM8qMXl-38" value="" style="endArrow=classic;html=1;exitX=0;exitY=0.5;exitDx=0;exitDy=0;edgeStyle=orthogonalEdgeStyle;" parent="1" source="NSmlfN2d5O3RcSM8qMXl-36" edge="1"><mxGeometry width="50" height="50" relative="1" as="geometry"><mxPoint x="170" y="70" as="sourcePoint"/><mxPoint x="260" y="120" as="targetPoint"/></mxGeometry></mxCell><mxCell id="NSmlfN2d5O3RcSM8qMXl-39" value="" style="edgeStyle=orthogonalEdgeStyle;fontSize=12;html=1;endArrow=ERoneToMany;startArrow=ERoneToMany;entryX=0.5;entryY=1;entryDx=0;entryDy=0;exitX=0.5;exitY=0;exitDx=0;exitDy=0;" parent="1" source="NSmlfN2d5O3RcSM8qMXl-20" target="NSmlfN2d5O3RcSM8qMXl-34" edge="1"><mxGeometry width="100" height="100" relative="1" as="geometry"><mxPoint x="330" y="250" as="sourcePoint"/><mxPoint x="430" y="150" as="targetPoint"/></mxGeometry></mxCell><mxCell id="NSmlfN2d5O3RcSM8qMXl-40" value="Pet" style="whiteSpace=wrap;html=1;align=center;gradientColor=#ffd966;fillColor=#fff2cc;strokeColor=#d6b656;" parent="1" vertex="1"><mxGeometry x="40" y="550" width="100" height="40" as="geometry"/></mxCell><mxCell id="NSmlfN2d5O3RcSM8qMXl-41" value="AppointmentStatus" style="whiteSpace=wrap;html=1;align=center;gradientColor=#97d077;fillColor=#d5e8d4;strokeColor=#82b366;" parent="1" vertex="1"><mxGeometry x="480" y="570" width="130" height="40" as="geometry"/></mxCell><mxCell id="NSmlfN2d5O3RcSM8qMXl-42" value="TreatmentRecord" style="whiteSpace=wrap;html=1;align=center;fillColor=#ffcccc;strokeColor=#36393d;" parent="1" vertex="1"><mxGeometry x="240" y="670" width="120" height="40" as="geometry"/></mxCell><mxCell id="NSmlfN2d5O3RcSM8qMXl-43" value="Appointment" style="whiteSpace=wrap;html=1;align=center;gradientColor=#97d077;fillColor=#d5e8d4;strokeColor=#82b366;" parent="1" vertex="1"><mxGeometry x="270" y="570" width="100" height="40" as="geometry"/></mxCell><mxCell id="NSmlfN2d5O3RcSM8qMXl-44" value="PetType" style="whiteSpace=wrap;html=1;align=center;gradientColor=#ffd966;fillColor=#fff2cc;strokeColor=#d6b656;" parent="1" vertex="1"><mxGeometry x="50" y="670" width="100" height="40" as="geometry"/></mxCell><mxCell id="NSmlfN2d5O3RcSM8qMXl-46" value="" style="edgeStyle=orthogonalEdgeStyle;fontSize=12;html=1;endArrow=ERoneToMany;exitX=0.5;exitY=0;exitDx=0;exitDy=0;entryX=0.5;entryY=1;entryDx=0;entryDy=0;" parent="1" source="NSmlfN2d5O3RcSM8qMXl-44" target="NSmlfN2d5O3RcSM8qMXl-40" edge="1"><mxGeometry width="100" height="100" relative="1" as="geometry"><mxPoint x="270" y="540" as="sourcePoint"/><mxPoint x="370" y="440" as="targetPoint"/></mxGeometry></mxCell><mxCell id="NSmlfN2d5O3RcSM8qMXl-47" value="" style="edgeStyle=orthogonalEdgeStyle;fontSize=12;html=1;endArrow=ERoneToMany;exitX=1;exitY=0.5;exitDx=0;exitDy=0;entryX=0;entryY=0.5;entryDx=0;entryDy=0;" parent="1" source="NSmlfN2d5O3RcSM8qMXl-40" target="NSmlfN2d5O3RcSM8qMXl-43" edge="1"><mxGeometry width="100" height="100" relative="1" as="geometry"><mxPoint x="110" y="680" as="sourcePoint"/><mxPoint x="110" y="600" as="targetPoint"/></mxGeometry></mxCell><mxCell id="NSmlfN2d5O3RcSM8qMXl-48" value="" style="edgeStyle=orthogonalEdgeStyle;fontSize=12;html=1;endArrow=ERoneToMany;exitX=0.5;exitY=1;exitDx=0;exitDy=0;entryX=0.5;entryY=0;entryDx=0;entryDy=0;" parent="1" source="NSmlfN2d5O3RcSM8qMXl-17" target="NSmlfN2d5O3RcSM8qMXl-43" edge="1"><mxGeometry width="100" height="100" relative="1" as="geometry"><mxPoint x="150" y="510" as="sourcePoint"/><mxPoint x="270" y="530" as="targetPoint"/><Array as="points"><mxPoint x="420" y="500"/><mxPoint x="320" y="500"/></Array></mxGeometry></mxCell><mxCell id="NSmlfN2d5O3RcSM8qMXl-49" value="" style="edgeStyle=orthogonalEdgeStyle;fontSize=12;html=1;endArrow=ERoneToMany;exitX=0.4;exitY=0.975;exitDx=0;exitDy=0;entryX=0.5;entryY=0;entryDx=0;entryDy=0;exitPerimeter=0;" parent="1" source="NSmlfN2d5O3RcSM8qMXl-19" target="NSmlfN2d5O3RcSM8qMXl-43" edge="1"><mxGeometry width="100" height="100" relative="1" as="geometry"><mxPoint x="430" y="451" as="sourcePoint"/><mxPoint x="320" y="510" as="targetPoint"/><Array as="points"><mxPoint x="80" y="500"/><mxPoint x="320" y="500"/></Array></mxGeometry></mxCell><mxCell id="NSmlfN2d5O3RcSM8qMXl-50" value="" style="edgeStyle=orthogonalEdgeStyle;fontSize=12;html=1;endArrow=ERoneToMany;exitX=0.25;exitY=1;exitDx=0;exitDy=0;entryX=0.136;entryY=-0.025;entryDx=0;entryDy=0;entryPerimeter=0;" parent="1" source="NSmlfN2d5O3RcSM8qMXl-19" target="NSmlfN2d5O3RcSM8qMXl-40" edge="1"><mxGeometry width="100" height="100" relative="1" as="geometry"><mxPoint x="110" y="680" as="sourcePoint"/><mxPoint x="50" y="520" as="targetPoint"/></mxGeometry></mxCell><mxCell id="NSmlfN2d5O3RcSM8qMXl-51" value="" style="edgeStyle=entityRelationEdgeStyle;fontSize=12;html=1;endArrow=ERmandOne;startArrow=ERmandOne;entryX=0;entryY=0.5;entryDx=0;entryDy=0;exitX=1;exitY=0.5;exitDx=0;exitDy=0;" parent="1" source="NSmlfN2d5O3RcSM8qMXl-43" target="NSmlfN2d5O3RcSM8qMXl-41" edge="1"><mxGeometry width="100" height="100" relative="1" as="geometry"><mxPoint x="290" y="610" as="sourcePoint"/><mxPoint x="390" y="510" as="targetPoint"/></mxGeometry></mxCell><mxCell id="NSmlfN2d5O3RcSM8qMXl-52" value="Medication" style="whiteSpace=wrap;html=1;align=center;gradientColor=#b3b3b3;fillColor=#f5f5f5;strokeColor=#666666;" parent="1" vertex="1"><mxGeometry x="50" y="770" width="100" height="40" as="geometry"/></mxCell><mxCell id="NSmlfN2d5O3RcSM8qMXl-53" value="TreatmentMedication" style="whiteSpace=wrap;html=1;align=center;fillColor=#ffcccc;strokeColor=#36393d;" parent="1" vertex="1"><mxGeometry x="230" y="807" width="130" height="40" as="geometry"/></mxCell><mxCell id="NSmlfN2d5O3RcSM8qMXl-54" value="InvoiceItem" style="whiteSpace=wrap;html=1;align=center;gradientColor=#d5739d;fillColor=#e6d0de;strokeColor=#996185;" parent="1" vertex="1"><mxGeometry x="400" y="890" width="110" height="40" as="geometry"/></mxCell><mxCell id="NSmlfN2d5O3RcSM8qMXl-55" value="Invoice" style="whiteSpace=wrap;html=1;align=center;gradientColor=#d5739d;fillColor=#e6d0de;strokeColor=#996185;" parent="1" vertex="1"><mxGeometry x="570" y="807" width="110" height="40" as="geometry"/></mxCell><mxCell id="NSmlfN2d5O3RcSM8qMXl-56" value="InvoiceStatus" style="whiteSpace=wrap;html=1;align=center;gradientColor=#d5739d;fillColor=#e6d0de;strokeColor=#996185;" parent="1" vertex="1"><mxGeometry x="730" y="730" width="110" height="40" as="geometry"/></mxCell><mxCell id="NSmlfN2d5O3RcSM8qMXl-57" value="" style="edgeStyle=orthogonalEdgeStyle;fontSize=12;html=1;endArrow=ERoneToMany;exitX=1;exitY=0.5;exitDx=0;exitDy=0;entryX=0.25;entryY=0;entryDx=0;entryDy=0;" parent="1" source="NSmlfN2d5O3RcSM8qMXl-40" target="NSmlfN2d5O3RcSM8qMXl-42" edge="1"><mxGeometry width="100" height="100" relative="1" as="geometry"><mxPoint x="210" y="720" as="sourcePoint"/><mxPoint x="200" y="640" as="targetPoint"/><Array as="points"><mxPoint x="170" y="570"/><mxPoint x="170" y="630"/><mxPoint x="270" y="630"/></Array></mxGeometry></mxCell><mxCell id="NSmlfN2d5O3RcSM8qMXl-58" value="" style="fontSize=12;html=1;endArrow=ERoneToMany;exitX=1;exitY=0.5;exitDx=0;exitDy=0;entryX=0;entryY=0.5;entryDx=0;entryDy=0;edgeStyle=orthogonalEdgeStyle;" parent="1" source="NSmlfN2d5O3RcSM8qMXl-52" target="NSmlfN2d5O3RcSM8qMXl-53" edge="1"><mxGeometry width="100" height="100" relative="1" as="geometry"><mxPoint x="170" y="707" as="sourcePoint"/><mxPoint x="300" y="807" as="targetPoint"/></mxGeometry></mxCell><mxCell id="NSmlfN2d5O3RcSM8qMXl-59" value="" style="fontSize=12;html=1;endArrow=ERoneToMany;entryX=0.5;entryY=0;entryDx=0;entryDy=0;exitX=0.44;exitY=1.055;exitDx=0;exitDy=0;exitPerimeter=0;edgeStyle=orthogonalEdgeStyle;" parent="1" source="NSmlfN2d5O3RcSM8qMXl-42" target="NSmlfN2d5O3RcSM8qMXl-53" edge="1"><mxGeometry width="100" height="100" relative="1" as="geometry"><mxPoint x="450" y="830" as="sourcePoint"/><mxPoint x="480" y="887" as="targetPoint"/></mxGeometry></mxCell><mxCell id="NSmlfN2d5O3RcSM8qMXl-60" value="" style="fontSize=12;html=1;endArrow=ERoneToMany;entryX=0.345;entryY=0.025;entryDx=0;entryDy=0;exitX=1;exitY=0.5;exitDx=0;exitDy=0;edgeStyle=orthogonalEdgeStyle;entryPerimeter=0;" parent="1" source="NSmlfN2d5O3RcSM8qMXl-42" target="NSmlfN2d5O3RcSM8qMXl-55" edge="1"><mxGeometry width="100" height="100" relative="1" as="geometry"><mxPoint x="560" y="660" as="sourcePoint"/><mxPoint x="562.2" y="754.8" as="targetPoint"/></mxGeometry></mxCell><mxCell id="NSmlfN2d5O3RcSM8qMXl-61" value="" style="fontSize=12;html=1;endArrow=ERoneToMany;entryX=1;entryY=0.5;entryDx=0;entryDy=0;exitX=0;exitY=0.5;exitDx=0;exitDy=0;edgeStyle=orthogonalEdgeStyle;" parent="1" source="NSmlfN2d5O3RcSM8qMXl-55" target="NSmlfN2d5O3RcSM8qMXl-54" edge="1"><mxGeometry width="100" height="100" relative="1" as="geometry"><mxPoint x="370" y="700" as="sourcePoint"/><mxPoint x="647.95" y="771" as="targetPoint"/></mxGeometry></mxCell><mxCell id="NSmlfN2d5O3RcSM8qMXl-62" value="" style="fontSize=12;html=1;endArrow=ERoneToMany;entryX=0;entryY=0.5;entryDx=0;entryDy=0;exitX=1;exitY=0.5;exitDx=0;exitDy=0;edgeStyle=orthogonalEdgeStyle;" parent="1" source="NSmlfN2d5O3RcSM8qMXl-53" target="NSmlfN2d5O3RcSM8qMXl-54" edge="1"><mxGeometry width="100" height="100" relative="1" as="geometry"><mxPoint x="495" y="710" as="sourcePoint"/><mxPoint x="405" y="710" as="targetPoint"/></mxGeometry></mxCell><mxCell id="NSmlfN2d5O3RcSM8qMXl-63" value="" style="fontSize=12;html=1;endArrow=ERoneToMany;entryX=1;entryY=0.5;entryDx=0;entryDy=0;exitX=0;exitY=0.5;exitDx=0;exitDy=0;edgeStyle=orthogonalEdgeStyle;" parent="1" source="NSmlfN2d5O3RcSM8qMXl-56" target="NSmlfN2d5O3RcSM8qMXl-55" edge="1"><mxGeometry width="100" height="100" relative="1" as="geometry"><mxPoint x="630" y="847" as="sourcePoint"/><mxPoint x="660" y="950" as="targetPoint"/></mxGeometry></mxCell><mxCell id="_7zzO1jFlr76pCo2bDKD-3" value="" style="group" parent="1" vertex="1" connectable="0"><mxGeometry x="370" y="1060" width="1025" height="1790" as="geometry"/></mxCell><mxCell id="_7zzO1jFlr76pCo2bDKD-6" value="" style="group" parent="_7zzO1jFlr76pCo2bDKD-3" vertex="1" connectable="0"><mxGeometry y="130" width="1025" height="1630" as="geometry"/></mxCell><mxCell id="_7zzO1jFlr76pCo2bDKD-2" value="" style="group;container=1;" parent="_7zzO1jFlr76pCo2bDKD-6" vertex="1" connectable="0"><mxGeometry y="280" width="1025" height="1350" as="geometry"/></mxCell><mxCell id="_7zzO1jFlr76pCo2bDKD-5" value="" style="group" parent="_7zzO1jFlr76pCo2bDKD-2" vertex="1" connectable="0"><mxGeometry x="-90" width="890" height="1350" as="geometry"/></mxCell><mxCell id="NSmlfN2d5O3RcSM8qMXl-232" value="Authority" style="shape=table;startSize=30;container=1;collapsible=1;childLayout=tableLayout;fixedRows=1;rowLines=0;fontStyle=1;align=center;resizeLast=1;gradientColor=none;" parent="_7zzO1jFlr76pCo2bDKD-5" vertex="1"><mxGeometry x="710" width="180" height="100" as="geometry"/></mxCell><mxCell id="NSmlfN2d5O3RcSM8qMXl-233" value="" style="shape=partialRectangle;collapsible=0;dropTarget=0;pointerEvents=0;fillColor=none;top=0;left=0;bottom=1;right=0;points=[[0,0.5],[1,0.5]];portConstraint=eastwest;" parent="NSmlfN2d5O3RcSM8qMXl-232" vertex="1"><mxGeometry y="30" width="180" height="30" as="geometry"/></mxCell><mxCell id="NSmlfN2d5O3RcSM8qMXl-234" value="PK" style="shape=partialRectangle;connectable=0;fillColor=none;top=0;left=0;bottom=0;right=0;fontStyle=1;overflow=hidden;" parent="NSmlfN2d5O3RcSM8qMXl-233" vertex="1"><mxGeometry width="30" height="30" as="geometry"/></mxCell><mxCell id="NSmlfN2d5O3RcSM8qMXl-235" value="authority" style="shape=partialRectangle;connectable=0;fillColor=none;top=0;left=0;bottom=0;right=0;align=left;spacingLeft=6;fontStyle=5;overflow=hidden;" parent="NSmlfN2d5O3RcSM8qMXl-233" vertex="1"><mxGeometry x="30" width="150" height="30" as="geometry"/></mxCell><mxCell id="NSmlfN2d5O3RcSM8qMXl-236" value="" style="shape=partialRectangle;collapsible=0;dropTarget=0;pointerEvents=0;fillColor=none;top=0;left=0;bottom=0;right=0;points=[[0,0.5],[1,0.5]];portConstraint=eastwest;" parent="NSmlfN2d5O3RcSM8qMXl-232" vertex="1"><mxGeometry y="60" width="180" height="30" as="geometry"/></mxCell><mxCell id="NSmlfN2d5O3RcSM8qMXl-237" value="" style="shape=partialRectangle;connectable=0;fillColor=none;top=0;left=0;bottom=0;right=0;editable=1;overflow=hidden;" parent="NSmlfN2d5O3RcSM8qMXl-236" vertex="1"><mxGeometry width="30" height="30" as="geometry"/></mxCell><mxCell id="NSmlfN2d5O3RcSM8qMXl-238" value="description" style="shape=partialRectangle;connectable=0;fillColor=none;top=0;left=0;bottom=0;right=0;align=left;spacingLeft=6;overflow=hidden;" parent="NSmlfN2d5O3RcSM8qMXl-236" vertex="1"><mxGeometry x="30" width="150" height="30" as="geometry"/></mxCell><mxCell id="_7zzO1jFlr76pCo2bDKD-4" value="" style="group" parent="_7zzO1jFlr76pCo2bDKD-5" vertex="1" connectable="0"><mxGeometry width="820" height="1350" as="geometry"/></mxCell><mxCell id="NSmlfN2d5O3RcSM8qMXl-64" value="Person (Abstract)" style="shape=table;startSize=30;container=1;collapsible=1;childLayout=tableLayout;fixedRows=1;rowLines=0;fontStyle=1;align=center;resizeLast=1;" parent="_7zzO1jFlr76pCo2bDKD-4" vertex="1"><mxGeometry x="90" width="180" height="240" as="geometry"><mxRectangle x="40" y="1000" width="70" height="30" as="alternateBounds"/></mxGeometry></mxCell><mxCell id="vVbPWBPVX9zCDqlzGk4p-23" style="shape=partialRectangle;collapsible=0;dropTarget=0;pointerEvents=0;fillColor=none;top=0;left=0;bottom=0;right=0;points=[[0,0.5],[1,0.5]];portConstraint=eastwest;" parent="NSmlfN2d5O3RcSM8qMXl-64" vertex="1"><mxGeometry y="30" width="180" height="30" as="geometry"/></mxCell><mxCell id="vVbPWBPVX9zCDqlzGk4p-24" value="" style="shape=partialRectangle;connectable=0;fillColor=none;top=0;left=0;bottom=0;right=0;editable=1;overflow=hidden;fontStyle=1" parent="vVbPWBPVX9zCDqlzGk4p-23" vertex="1"><mxGeometry width="30" height="30" as="geometry"/></mxCell><mxCell id="vVbPWBPVX9zCDqlzGk4p-25" value="personID" style="shape=partialRectangle;connectable=0;fillColor=none;top=0;left=0;bottom=0;right=0;align=left;spacingLeft=6;overflow=hidden;" parent="vVbPWBPVX9zCDqlzGk4p-23" vertex="1"><mxGeometry x="30" width="150" height="30" as="geometry"/></mxCell><mxCell id="NSmlfN2d5O3RcSM8qMXl-68" value="" style="shape=partialRectangle;collapsible=0;dropTarget=0;pointerEvents=0;fillColor=none;top=0;left=0;bottom=0;right=0;points=[[0,0.5],[1,0.5]];portConstraint=eastwest;" parent="NSmlfN2d5O3RcSM8qMXl-64" vertex="1"><mxGeometry y="60" width="180" height="30" as="geometry"/></mxCell><mxCell id="NSmlfN2d5O3RcSM8qMXl-69" value="" style="shape=partialRectangle;connectable=0;fillColor=none;top=0;left=0;bottom=0;right=0;editable=1;overflow=hidden;" parent="NSmlfN2d5O3RcSM8qMXl-68" vertex="1"><mxGeometry width="30" height="30" as="geometry"/></mxCell><mxCell id="NSmlfN2d5O3RcSM8qMXl-70" value="firstName" style="shape=partialRectangle;connectable=0;fillColor=none;top=0;left=0;bottom=0;right=0;align=left;spacingLeft=6;overflow=hidden;" parent="NSmlfN2d5O3RcSM8qMXl-68" vertex="1"><mxGeometry x="30" width="150" height="30" as="geometry"/></mxCell><mxCell id="NSmlfN2d5O3RcSM8qMXl-71" value="" style="shape=partialRectangle;collapsible=0;dropTarget=0;pointerEvents=0;fillColor=none;top=0;left=0;bottom=0;right=0;points=[[0,0.5],[1,0.5]];portConstraint=eastwest;" parent="NSmlfN2d5O3RcSM8qMXl-64" vertex="1"><mxGeometry y="90" width="180" height="30" as="geometry"/></mxCell><mxCell id="NSmlfN2d5O3RcSM8qMXl-72" value="" style="shape=partialRectangle;connectable=0;fillColor=none;top=0;left=0;bottom=0;right=0;editable=1;overflow=hidden;" parent="NSmlfN2d5O3RcSM8qMXl-71" vertex="1"><mxGeometry width="30" height="30" as="geometry"/></mxCell><mxCell id="NSmlfN2d5O3RcSM8qMXl-73" value="middleName" style="shape=partialRectangle;connectable=0;fillColor=none;top=0;left=0;bottom=0;right=0;align=left;spacingLeft=6;overflow=hidden;" parent="NSmlfN2d5O3RcSM8qMXl-71" vertex="1"><mxGeometry x="30" width="150" height="30" as="geometry"/></mxCell><mxCell id="NSmlfN2d5O3RcSM8qMXl-74" value="" style="shape=partialRectangle;collapsible=0;dropTarget=0;pointerEvents=0;fillColor=none;top=0;left=0;bottom=0;right=0;points=[[0,0.5],[1,0.5]];portConstraint=eastwest;" parent="NSmlfN2d5O3RcSM8qMXl-64" vertex="1"><mxGeometry y="120" width="180" height="30" as="geometry"/></mxCell><mxCell id="NSmlfN2d5O3RcSM8qMXl-75" value="" style="shape=partialRectangle;connectable=0;fillColor=none;top=0;left=0;bottom=0;right=0;editable=1;overflow=hidden;" parent="NSmlfN2d5O3RcSM8qMXl-74" vertex="1"><mxGeometry width="30" height="30" as="geometry"/></mxCell><mxCell id="NSmlfN2d5O3RcSM8qMXl-76" value="lastName" style="shape=partialRectangle;connectable=0;fillColor=none;top=0;left=0;bottom=0;right=0;align=left;spacingLeft=6;overflow=hidden;" parent="NSmlfN2d5O3RcSM8qMXl-74" vertex="1"><mxGeometry x="30" width="150" height="30" as="geometry"/></mxCell><mxCell id="NSmlfN2d5O3RcSM8qMXl-83" value="" style="shape=partialRectangle;collapsible=0;dropTarget=0;pointerEvents=0;fillColor=none;top=0;left=0;bottom=0;right=0;points=[[0,0.5],[1,0.5]];portConstraint=eastwest;" parent="NSmlfN2d5O3RcSM8qMXl-64" vertex="1"><mxGeometry y="150" width="180" height="30" as="geometry"/></mxCell><mxCell id="NSmlfN2d5O3RcSM8qMXl-84" value="" style="shape=partialRectangle;connectable=0;fillColor=none;top=0;left=0;bottom=0;right=0;editable=1;overflow=hidden;" parent="NSmlfN2d5O3RcSM8qMXl-83" vertex="1"><mxGeometry width="30" height="30" as="geometry"/></mxCell><mxCell id="NSmlfN2d5O3RcSM8qMXl-85" value="alias" style="shape=partialRectangle;connectable=0;fillColor=none;top=0;left=0;bottom=0;right=0;align=left;spacingLeft=6;overflow=hidden;" parent="NSmlfN2d5O3RcSM8qMXl-83" vertex="1"><mxGeometry x="30" width="150" height="30" as="geometry"/></mxCell><mxCell id="NSmlfN2d5O3RcSM8qMXl-86" style="shape=partialRectangle;collapsible=0;dropTarget=0;pointerEvents=0;fillColor=none;top=0;left=0;bottom=0;right=0;points=[[0,0.5],[1,0.5]];portConstraint=eastwest;" parent="NSmlfN2d5O3RcSM8qMXl-64" vertex="1"><mxGeometry y="180" width="180" height="30" as="geometry"/></mxCell><mxCell id="NSmlfN2d5O3RcSM8qMXl-87" style="shape=partialRectangle;connectable=0;fillColor=none;top=0;left=0;bottom=0;right=0;editable=1;overflow=hidden;" parent="NSmlfN2d5O3RcSM8qMXl-86" vertex="1"><mxGeometry width="30" height="30" as="geometry"/></mxCell><mxCell id="NSmlfN2d5O3RcSM8qMXl-88" value="dateOfBirth" style="shape=partialRectangle;connectable=0;fillColor=none;top=0;left=0;bottom=0;right=0;align=left;spacingLeft=6;overflow=hidden;" parent="NSmlfN2d5O3RcSM8qMXl-86" vertex="1"><mxGeometry x="30" width="150" height="30" as="geometry"/></mxCell><mxCell id="NSmlfN2d5O3RcSM8qMXl-89" style="shape=partialRectangle;collapsible=0;dropTarget=0;pointerEvents=0;fillColor=none;top=0;left=0;bottom=0;right=0;points=[[0,0.5],[1,0.5]];portConstraint=eastwest;" parent="NSmlfN2d5O3RcSM8qMXl-64" vertex="1"><mxGeometry y="210" width="180" height="30" as="geometry"/></mxCell><mxCell id="NSmlfN2d5O3RcSM8qMXl-90" style="shape=partialRectangle;connectable=0;fillColor=none;top=0;left=0;bottom=0;right=0;editable=1;overflow=hidden;" parent="NSmlfN2d5O3RcSM8qMXl-89" vertex="1"><mxGeometry width="30" height="30" as="geometry"/></mxCell><mxCell id="NSmlfN2d5O3RcSM8qMXl-91" value="gender" style="shape=partialRectangle;connectable=0;fillColor=none;top=0;left=0;bottom=0;right=0;align=left;spacingLeft=6;overflow=hidden;" parent="NSmlfN2d5O3RcSM8qMXl-89" vertex="1"><mxGeometry x="30" width="150" height="30" as="geometry"/></mxCell><mxCell id="NSmlfN2d5O3RcSM8qMXl-111" value="VeterinaryDoctor" style="shape=table;startSize=30;container=1;collapsible=1;childLayout=tableLayout;fixedRows=1;rowLines=0;fontStyle=1;align=center;resizeLast=1;" parent="_7zzO1jFlr76pCo2bDKD-4" vertex="1"><mxGeometry x="400" y="250" width="180" height="90" as="geometry"><mxRectangle x="40" y="1000" width="70" height="30" as="alternateBounds"/></mxGeometry></mxCell><mxCell id="NSmlfN2d5O3RcSM8qMXl-112" value="" style="shape=partialRectangle;collapsible=0;dropTarget=0;pointerEvents=0;fillColor=none;top=0;left=0;bottom=0;right=0;points=[[0,0.5],[1,0.5]];portConstraint=eastwest;" parent="NSmlfN2d5O3RcSM8qMXl-111" vertex="1"><mxGeometry y="30" width="180" height="30" as="geometry"/></mxCell><mxCell id="NSmlfN2d5O3RcSM8qMXl-113" value="UK" style="shape=partialRectangle;connectable=0;fillColor=none;top=0;left=0;bottom=0;right=0;editable=1;overflow=hidden;" parent="NSmlfN2d5O3RcSM8qMXl-112" vertex="1"><mxGeometry width="30" height="30" as="geometry"/></mxCell><mxCell id="NSmlfN2d5O3RcSM8qMXl-114" value="veterinaryRegistryId" style="shape=partialRectangle;connectable=0;fillColor=none;top=0;left=0;bottom=0;right=0;align=left;spacingLeft=6;overflow=hidden;" parent="NSmlfN2d5O3RcSM8qMXl-112" vertex="1"><mxGeometry x="30" width="150" height="30" as="geometry"/></mxCell><mxCell id="NSmlfN2d5O3RcSM8qMXl-115" value="" style="shape=partialRectangle;collapsible=0;dropTarget=0;pointerEvents=0;fillColor=none;top=0;left=0;bottom=0;right=0;points=[[0,0.5],[1,0.5]];portConstraint=eastwest;" parent="NSmlfN2d5O3RcSM8qMXl-111" vertex="1"><mxGeometry y="60" width="180" height="30" as="geometry"/></mxCell><mxCell id="NSmlfN2d5O3RcSM8qMXl-116" value="" style="shape=partialRectangle;connectable=0;fillColor=none;top=0;left=0;bottom=0;right=0;editable=1;overflow=hidden;" parent="NSmlfN2d5O3RcSM8qMXl-115" vertex="1"><mxGeometry width="30" height="30" as="geometry"/></mxCell><mxCell id="NSmlfN2d5O3RcSM8qMXl-117" value="qualificationDate" style="shape=partialRectangle;connectable=0;fillColor=none;top=0;left=0;bottom=0;right=0;align=left;spacingLeft=6;overflow=hidden;" parent="NSmlfN2d5O3RcSM8qMXl-115" vertex="1"><mxGeometry x="30" width="150" height="30" as="geometry"/></mxCell><mxCell id="NSmlfN2d5O3RcSM8qMXl-121" value="Employee" style="shape=table;startSize=30;container=1;collapsible=1;childLayout=tableLayout;fixedRows=1;rowLines=0;fontStyle=1;align=center;resizeLast=1;gradientColor=none;" parent="_7zzO1jFlr76pCo2bDKD-4" vertex="1"><mxGeometry x="200" y="250" width="180" height="200" as="geometry"/></mxCell><mxCell id="NSmlfN2d5O3RcSM8qMXl-122" value="" style="shape=partialRectangle;collapsible=0;dropTarget=0;pointerEvents=0;fillColor=none;top=0;left=0;bottom=1;right=0;points=[[0,0.5],[1,0.5]];portConstraint=eastwest;" parent="NSmlfN2d5O3RcSM8qMXl-121" vertex="1"><mxGeometry y="30" width="180" height="30" as="geometry"/></mxCell><mxCell id="NSmlfN2d5O3RcSM8qMXl-123" value="PK" style="shape=partialRectangle;connectable=0;fillColor=none;top=0;left=0;bottom=0;right=0;fontStyle=1;overflow=hidden;" parent="NSmlfN2d5O3RcSM8qMXl-122" vertex="1"><mxGeometry width="30" height="30" as="geometry"/></mxCell><mxCell id="NSmlfN2d5O3RcSM8qMXl-124" value="employeeID" style="shape=partialRectangle;connectable=0;fillColor=none;top=0;left=0;bottom=0;right=0;align=left;spacingLeft=6;fontStyle=5;overflow=hidden;" parent="NSmlfN2d5O3RcSM8qMXl-122" vertex="1"><mxGeometry x="30" width="150" height="30" as="geometry"/></mxCell><mxCell id="NSmlfN2d5O3RcSM8qMXl-125" value="" style="shape=partialRectangle;collapsible=0;dropTarget=0;pointerEvents=0;fillColor=none;top=0;left=0;bottom=0;right=0;points=[[0,0.5],[1,0.5]];portConstraint=eastwest;" parent="NSmlfN2d5O3RcSM8qMXl-121" vertex="1"><mxGeometry y="60" width="180" height="30" as="geometry"/></mxCell><mxCell id="NSmlfN2d5O3RcSM8qMXl-126" value="" style="shape=partialRectangle;connectable=0;fillColor=none;top=0;left=0;bottom=0;right=0;editable=1;overflow=hidden;" parent="NSmlfN2d5O3RcSM8qMXl-125" vertex="1"><mxGeometry width="30" height="30" as="geometry"/></mxCell><mxCell id="NSmlfN2d5O3RcSM8qMXl-127" value="employmentDate" style="shape=partialRectangle;connectable=0;fillColor=none;top=0;left=0;bottom=0;right=0;align=left;spacingLeft=6;overflow=hidden;" parent="NSmlfN2d5O3RcSM8qMXl-125" vertex="1"><mxGeometry x="30" width="150" height="30" as="geometry"/></mxCell><mxCell id="NSmlfN2d5O3RcSM8qMXl-128" value="" style="shape=partialRectangle;collapsible=0;dropTarget=0;pointerEvents=0;fillColor=none;top=0;left=0;bottom=0;right=0;points=[[0,0.5],[1,0.5]];portConstraint=eastwest;" parent="NSmlfN2d5O3RcSM8qMXl-121" vertex="1"><mxGeometry y="90" width="180" height="30" as="geometry"/></mxCell><mxCell id="NSmlfN2d5O3RcSM8qMXl-129" value="" style="shape=partialRectangle;connectable=0;fillColor=none;top=0;left=0;bottom=0;right=0;editable=1;overflow=hidden;" parent="NSmlfN2d5O3RcSM8qMXl-128" vertex="1"><mxGeometry width="30" height="30" as="geometry"/></mxCell><mxCell id="NSmlfN2d5O3RcSM8qMXl-130" value="salary" style="shape=partialRectangle;connectable=0;fillColor=none;top=0;left=0;bottom=0;right=0;align=left;spacingLeft=6;overflow=hidden;" parent="NSmlfN2d5O3RcSM8qMXl-128" vertex="1"><mxGeometry x="30" width="150" height="30" as="geometry"/></mxCell><mxCell id="vVbPWBPVX9zCDqlzGk4p-11" style="shape=partialRectangle;collapsible=0;dropTarget=0;pointerEvents=0;fillColor=none;top=0;left=0;bottom=0;right=0;points=[[0,0.5],[1,0.5]];portConstraint=eastwest;" parent="NSmlfN2d5O3RcSM8qMXl-121" vertex="1"><mxGeometry y="120" width="180" height="30" as="geometry"/></mxCell><mxCell id="vVbPWBPVX9zCDqlzGk4p-12" value="FK" style="shape=partialRectangle;connectable=0;fillColor=none;top=0;left=0;bottom=0;right=0;editable=1;overflow=hidden;" parent="vVbPWBPVX9zCDqlzGk4p-11" vertex="1"><mxGeometry width="30" height="30" as="geometry"/></mxCell><mxCell id="vVbPWBPVX9zCDqlzGk4p-13" value="vetenaryRegistryId" style="shape=partialRectangle;connectable=0;fillColor=none;top=0;left=0;bottom=0;right=0;align=left;spacingLeft=6;overflow=hidden;" parent="vVbPWBPVX9zCDqlzGk4p-11" vertex="1"><mxGeometry x="30" width="150" height="30" as="geometry"/></mxCell><mxCell id="NSmlfN2d5O3RcSM8qMXl-242" value="Speciality (Enum)" style="shape=table;startSize=30;container=1;collapsible=1;childLayout=tableLayout;fixedRows=1;rowLines=0;fontStyle=1;align=center;resizeLast=1;" parent="_7zzO1jFlr76pCo2bDKD-4" vertex="1"><mxGeometry x="600" y="250" width="180" height="150" as="geometry"><mxRectangle x="40" y="1000" width="70" height="30" as="alternateBounds"/></mxGeometry></mxCell><mxCell id="NSmlfN2d5O3RcSM8qMXl-246" value="" style="shape=partialRectangle;collapsible=0;dropTarget=0;pointerEvents=0;fillColor=none;top=0;left=0;bottom=0;right=0;points=[[0,0.5],[1,0.5]];portConstraint=eastwest;" parent="NSmlfN2d5O3RcSM8qMXl-242" vertex="1"><mxGeometry y="30" width="180" height="30" as="geometry"/></mxCell><mxCell id="NSmlfN2d5O3RcSM8qMXl-247" value="" style="shape=partialRectangle;connectable=0;fillColor=none;top=0;left=0;bottom=0;right=0;editable=1;overflow=hidden;" parent="NSmlfN2d5O3RcSM8qMXl-246" vertex="1"><mxGeometry width="30" height="30" as="geometry"/></mxCell><mxCell id="NSmlfN2d5O3RcSM8qMXl-248" value="Cardiology" style="shape=partialRectangle;connectable=0;fillColor=none;top=0;left=0;bottom=0;right=0;align=left;spacingLeft=6;overflow=hidden;" parent="NSmlfN2d5O3RcSM8qMXl-246" vertex="1"><mxGeometry x="30" width="150" height="30" as="geometry"/></mxCell><mxCell id="NSmlfN2d5O3RcSM8qMXl-249" style="shape=partialRectangle;collapsible=0;dropTarget=0;pointerEvents=0;fillColor=none;top=0;left=0;bottom=0;right=0;points=[[0,0.5],[1,0.5]];portConstraint=eastwest;" parent="NSmlfN2d5O3RcSM8qMXl-242" vertex="1"><mxGeometry y="60" width="180" height="30" as="geometry"/></mxCell><mxCell id="NSmlfN2d5O3RcSM8qMXl-250" style="shape=partialRectangle;connectable=0;fillColor=none;top=0;left=0;bottom=0;right=0;editable=1;overflow=hidden;" parent="NSmlfN2d5O3RcSM8qMXl-249" vertex="1"><mxGeometry width="30" height="30" as="geometry"/></mxCell><mxCell id="NSmlfN2d5O3RcSM8qMXl-251" value="Dentistry" style="shape=partialRectangle;connectable=0;fillColor=none;top=0;left=0;bottom=0;right=0;align=left;spacingLeft=6;overflow=hidden;" parent="NSmlfN2d5O3RcSM8qMXl-249" vertex="1"><mxGeometry x="30" width="150" height="30" as="geometry"/></mxCell><mxCell id="NSmlfN2d5O3RcSM8qMXl-252" style="shape=partialRectangle;collapsible=0;dropTarget=0;pointerEvents=0;fillColor=none;top=0;left=0;bottom=0;right=0;points=[[0,0.5],[1,0.5]];portConstraint=eastwest;" parent="NSmlfN2d5O3RcSM8qMXl-242" vertex="1"><mxGeometry y="90" width="180" height="30" as="geometry"/></mxCell><mxCell id="NSmlfN2d5O3RcSM8qMXl-253" style="shape=partialRectangle;connectable=0;fillColor=none;top=0;left=0;bottom=0;right=0;editable=1;overflow=hidden;" parent="NSmlfN2d5O3RcSM8qMXl-252" vertex="1"><mxGeometry width="30" height="30" as="geometry"/></mxCell><mxCell id="NSmlfN2d5O3RcSM8qMXl-254" value="Nutritionist" style="shape=partialRectangle;connectable=0;fillColor=none;top=0;left=0;bottom=0;right=0;align=left;spacingLeft=6;overflow=hidden;" parent="NSmlfN2d5O3RcSM8qMXl-252" vertex="1"><mxGeometry x="30" width="150" height="30" as="geometry"/></mxCell><mxCell id="NSmlfN2d5O3RcSM8qMXl-277" style="shape=partialRectangle;collapsible=0;dropTarget=0;pointerEvents=0;fillColor=none;top=0;left=0;bottom=0;right=0;points=[[0,0.5],[1,0.5]];portConstraint=eastwest;" parent="NSmlfN2d5O3RcSM8qMXl-242" vertex="1"><mxGeometry y="120" width="180" height="30" as="geometry"/></mxCell><mxCell id="NSmlfN2d5O3RcSM8qMXl-278" style="shape=partialRectangle;connectable=0;fillColor=none;top=0;left=0;bottom=0;right=0;editable=1;overflow=hidden;" parent="NSmlfN2d5O3RcSM8qMXl-277" vertex="1"><mxGeometry width="30" height="30" as="geometry"/></mxCell><mxCell id="NSmlfN2d5O3RcSM8qMXl-279" style="shape=partialRectangle;connectable=0;fillColor=none;top=0;left=0;bottom=0;right=0;align=left;spacingLeft=6;overflow=hidden;" parent="NSmlfN2d5O3RcSM8qMXl-277" vertex="1"><mxGeometry x="30" width="150" height="30" as="geometry"/></mxCell><mxCell id="NSmlfN2d5O3RcSM8qMXl-384" value="AppointmentStatus(Enum)" style="shape=table;startSize=30;container=1;collapsible=1;childLayout=tableLayout;fixedRows=1;rowLines=0;fontStyle=1;align=center;resizeLast=1;" parent="_7zzO1jFlr76pCo2bDKD-4" vertex="1"><mxGeometry x="200" y="470" width="180" height="120" as="geometry"><mxRectangle x="40" y="1000" width="70" height="30" as="alternateBounds"/></mxGeometry></mxCell><mxCell id="NSmlfN2d5O3RcSM8qMXl-385" value="" style="shape=partialRectangle;collapsible=0;dropTarget=0;pointerEvents=0;fillColor=none;top=0;left=0;bottom=0;right=0;points=[[0,0.5],[1,0.5]];portConstraint=eastwest;" parent="NSmlfN2d5O3RcSM8qMXl-384" vertex="1"><mxGeometry y="30" width="180" height="30" as="geometry"/></mxCell><mxCell id="NSmlfN2d5O3RcSM8qMXl-386" value="" style="shape=partialRectangle;connectable=0;fillColor=none;top=0;left=0;bottom=0;right=0;editable=1;overflow=hidden;" parent="NSmlfN2d5O3RcSM8qMXl-385" vertex="1"><mxGeometry width="30" height="30" as="geometry"/></mxCell><mxCell id="NSmlfN2d5O3RcSM8qMXl-387" value="Cancelled" style="shape=partialRectangle;connectable=0;fillColor=none;top=0;left=0;bottom=0;right=0;align=left;spacingLeft=6;overflow=hidden;" parent="NSmlfN2d5O3RcSM8qMXl-385" vertex="1"><mxGeometry x="30" width="150" height="30" as="geometry"/></mxCell><mxCell id="NSmlfN2d5O3RcSM8qMXl-388" style="shape=partialRectangle;collapsible=0;dropTarget=0;pointerEvents=0;fillColor=none;top=0;left=0;bottom=0;right=0;points=[[0,0.5],[1,0.5]];portConstraint=eastwest;" parent="NSmlfN2d5O3RcSM8qMXl-384" vertex="1"><mxGeometry y="60" width="180" height="30" as="geometry"/></mxCell><mxCell id="NSmlfN2d5O3RcSM8qMXl-389" style="shape=partialRectangle;connectable=0;fillColor=none;top=0;left=0;bottom=0;right=0;editable=1;overflow=hidden;" parent="NSmlfN2d5O3RcSM8qMXl-388" vertex="1"><mxGeometry width="30" height="30" as="geometry"/></mxCell><mxCell id="NSmlfN2d5O3RcSM8qMXl-390" value="Postponed" style="shape=partialRectangle;connectable=0;fillColor=none;top=0;left=0;bottom=0;right=0;align=left;spacingLeft=6;overflow=hidden;" parent="NSmlfN2d5O3RcSM8qMXl-388" vertex="1"><mxGeometry x="30" width="150" height="30" as="geometry"/></mxCell><mxCell id="NSmlfN2d5O3RcSM8qMXl-391" style="shape=partialRectangle;collapsible=0;dropTarget=0;pointerEvents=0;fillColor=none;top=0;left=0;bottom=0;right=0;points=[[0,0.5],[1,0.5]];portConstraint=eastwest;" parent="NSmlfN2d5O3RcSM8qMXl-384" vertex="1"><mxGeometry y="90" width="180" height="30" as="geometry"/></mxCell><mxCell id="NSmlfN2d5O3RcSM8qMXl-392" style="shape=partialRectangle;connectable=0;fillColor=none;top=0;left=0;bottom=0;right=0;editable=1;overflow=hidden;" parent="NSmlfN2d5O3RcSM8qMXl-391" vertex="1"><mxGeometry width="30" height="30" as="geometry"/></mxCell><mxCell id="NSmlfN2d5O3RcSM8qMXl-393" value="Kept" style="shape=partialRectangle;connectable=0;fillColor=none;top=0;left=0;bottom=0;right=0;align=left;spacingLeft=6;overflow=hidden;" parent="NSmlfN2d5O3RcSM8qMXl-391" vertex="1"><mxGeometry x="30" width="150" height="30" as="geometry"/></mxCell><mxCell id="NSmlfN2d5O3RcSM8qMXl-428" value="InvoiceStatus(Enum)" style="shape=table;startSize=30;container=1;collapsible=1;childLayout=tableLayout;fixedRows=1;rowLines=0;fontStyle=1;align=center;resizeLast=1;" parent="_7zzO1jFlr76pCo2bDKD-4" vertex="1"><mxGeometry x="640" y="1090" width="180" height="120" as="geometry"><mxRectangle x="40" y="1000" width="70" height="30" as="alternateBounds"/></mxGeometry></mxCell><mxCell id="NSmlfN2d5O3RcSM8qMXl-429" value="" style="shape=partialRectangle;collapsible=0;dropTarget=0;pointerEvents=0;fillColor=none;top=0;left=0;bottom=0;right=0;points=[[0,0.5],[1,0.5]];portConstraint=eastwest;" parent="NSmlfN2d5O3RcSM8qMXl-428" vertex="1"><mxGeometry y="30" width="180" height="30" as="geometry"/></mxCell><mxCell id="NSmlfN2d5O3RcSM8qMXl-430" value="" style="shape=partialRectangle;connectable=0;fillColor=none;top=0;left=0;bottom=0;right=0;editable=1;overflow=hidden;" parent="NSmlfN2d5O3RcSM8qMXl-429" vertex="1"><mxGeometry width="30" height="30" as="geometry"/></mxCell><mxCell id="NSmlfN2d5O3RcSM8qMXl-431" value="PaidInFull" style="shape=partialRectangle;connectable=0;fillColor=none;top=0;left=0;bottom=0;right=0;align=left;spacingLeft=6;overflow=hidden;" parent="NSmlfN2d5O3RcSM8qMXl-429" vertex="1"><mxGeometry x="30" width="150" height="30" as="geometry"/></mxCell><mxCell id="NSmlfN2d5O3RcSM8qMXl-432" style="shape=partialRectangle;collapsible=0;dropTarget=0;pointerEvents=0;fillColor=none;top=0;left=0;bottom=0;right=0;points=[[0,0.5],[1,0.5]];portConstraint=eastwest;" parent="NSmlfN2d5O3RcSM8qMXl-428" vertex="1"><mxGeometry y="60" width="180" height="30" as="geometry"/></mxCell><mxCell id="NSmlfN2d5O3RcSM8qMXl-433" style="shape=partialRectangle;connectable=0;fillColor=none;top=0;left=0;bottom=0;right=0;editable=1;overflow=hidden;" parent="NSmlfN2d5O3RcSM8qMXl-432" vertex="1"><mxGeometry width="30" height="30" as="geometry"/></mxCell><mxCell id="NSmlfN2d5O3RcSM8qMXl-434" value="PaidInInstallments" style="shape=partialRectangle;connectable=0;fillColor=none;top=0;left=0;bottom=0;right=0;align=left;spacingLeft=6;overflow=hidden;" parent="NSmlfN2d5O3RcSM8qMXl-432" vertex="1"><mxGeometry x="30" width="150" height="30" as="geometry"/></mxCell><mxCell id="NSmlfN2d5O3RcSM8qMXl-435" style="shape=partialRectangle;collapsible=0;dropTarget=0;pointerEvents=0;fillColor=none;top=0;left=0;bottom=0;right=0;points=[[0,0.5],[1,0.5]];portConstraint=eastwest;" parent="NSmlfN2d5O3RcSM8qMXl-428" vertex="1"><mxGeometry y="90" width="180" height="30" as="geometry"/></mxCell><mxCell id="NSmlfN2d5O3RcSM8qMXl-436" style="shape=partialRectangle;connectable=0;fillColor=none;top=0;left=0;bottom=0;right=0;editable=1;overflow=hidden;" parent="NSmlfN2d5O3RcSM8qMXl-435" vertex="1"><mxGeometry width="30" height="30" as="geometry"/></mxCell><mxCell id="NSmlfN2d5O3RcSM8qMXl-437" value="Outstanding" style="shape=partialRectangle;connectable=0;fillColor=none;top=0;left=0;bottom=0;right=0;align=left;spacingLeft=6;overflow=hidden;" parent="NSmlfN2d5O3RcSM8qMXl-435" vertex="1"><mxGeometry x="30" width="150" height="30" as="geometry"/></mxCell><mxCell id="NSmlfN2d5O3RcSM8qMXl-438" value="InvoiceItem" style="shape=table;startSize=30;container=1;collapsible=1;childLayout=tableLayout;fixedRows=1;rowLines=0;fontStyle=1;align=center;resizeLast=1;gradientColor=none;" parent="_7zzO1jFlr76pCo2bDKD-4" vertex="1"><mxGeometry x="220" y="1130" width="180" height="220" as="geometry"/></mxCell><mxCell id="vVbPWBPVX9zCDqlzGk4p-20" style="shape=partialRectangle;collapsible=0;dropTarget=0;pointerEvents=0;fillColor=none;top=0;left=0;bottom=0;right=0;points=[[0,0.5],[1,0.5]];portConstraint=eastwest;" parent="NSmlfN2d5O3RcSM8qMXl-438" vertex="1"><mxGeometry y="30" width="180" height="30" as="geometry"/></mxCell><mxCell id="vVbPWBPVX9zCDqlzGk4p-21" value="PK" style="shape=partialRectangle;connectable=0;fillColor=none;top=0;left=0;bottom=0;right=0;editable=1;overflow=hidden;" parent="vVbPWBPVX9zCDqlzGk4p-20" vertex="1"><mxGeometry width="30" height="30" as="geometry"/></mxCell><mxCell id="vVbPWBPVX9zCDqlzGk4p-22" value="InvoiceItemId" style="shape=partialRectangle;connectable=0;fillColor=none;top=0;left=0;bottom=0;right=0;align=left;spacingLeft=6;overflow=hidden;" parent="vVbPWBPVX9zCDqlzGk4p-20" vertex="1"><mxGeometry x="30" width="150" height="30" as="geometry"/></mxCell><mxCell id="NSmlfN2d5O3RcSM8qMXl-442" value="" style="shape=partialRectangle;collapsible=0;dropTarget=0;pointerEvents=0;fillColor=none;top=0;left=0;bottom=0;right=0;points=[[0,0.5],[1,0.5]];portConstraint=eastwest;" parent="NSmlfN2d5O3RcSM8qMXl-438" vertex="1"><mxGeometry y="60" width="180" height="30" as="geometry"/></mxCell><mxCell id="NSmlfN2d5O3RcSM8qMXl-443" value="FK" style="shape=partialRectangle;connectable=0;fillColor=none;top=0;left=0;bottom=0;right=0;editable=1;overflow=hidden;" parent="NSmlfN2d5O3RcSM8qMXl-442" vertex="1"><mxGeometry width="30" height="30" as="geometry"/></mxCell><mxCell id="NSmlfN2d5O3RcSM8qMXl-444" value="invoiceId" style="shape=partialRectangle;connectable=0;fillColor=none;top=0;left=0;bottom=0;right=0;align=left;spacingLeft=6;overflow=hidden;" parent="NSmlfN2d5O3RcSM8qMXl-442" vertex="1"><mxGeometry x="30" width="150" height="30" as="geometry"/></mxCell><mxCell id="NSmlfN2d5O3RcSM8qMXl-445" value="" style="shape=partialRectangle;collapsible=0;dropTarget=0;pointerEvents=0;fillColor=none;top=0;left=0;bottom=0;right=0;points=[[0,0.5],[1,0.5]];portConstraint=eastwest;" parent="NSmlfN2d5O3RcSM8qMXl-438" vertex="1"><mxGeometry y="90" width="180" height="30" as="geometry"/></mxCell><mxCell id="NSmlfN2d5O3RcSM8qMXl-446" value="FK" style="shape=partialRectangle;connectable=0;fillColor=none;top=0;left=0;bottom=0;right=0;editable=1;overflow=hidden;" parent="NSmlfN2d5O3RcSM8qMXl-445" vertex="1"><mxGeometry width="30" height="30" as="geometry"/></mxCell><mxCell id="NSmlfN2d5O3RcSM8qMXl-447" value="treatmentId" style="shape=partialRectangle;connectable=0;fillColor=none;top=0;left=0;bottom=0;right=0;align=left;spacingLeft=6;overflow=hidden;" parent="NSmlfN2d5O3RcSM8qMXl-445" vertex="1"><mxGeometry x="30" width="150" height="30" as="geometry"/></mxCell><mxCell id="NSmlfN2d5O3RcSM8qMXl-448" value="" style="shape=partialRectangle;collapsible=0;dropTarget=0;pointerEvents=0;fillColor=none;top=0;left=0;bottom=0;right=0;points=[[0,0.5],[1,0.5]];portConstraint=eastwest;" parent="NSmlfN2d5O3RcSM8qMXl-438" vertex="1"><mxGeometry y="120" width="180" height="30" as="geometry"/></mxCell><mxCell id="NSmlfN2d5O3RcSM8qMXl-449" value="FK" style="shape=partialRectangle;connectable=0;fillColor=none;top=0;left=0;bottom=0;right=0;editable=1;overflow=hidden;" parent="NSmlfN2d5O3RcSM8qMXl-448" vertex="1"><mxGeometry width="30" height="30" as="geometry"/></mxCell><mxCell id="NSmlfN2d5O3RcSM8qMXl-450" value="medicationId" style="shape=partialRectangle;connectable=0;fillColor=none;top=0;left=0;bottom=0;right=0;align=left;spacingLeft=6;overflow=hidden;" parent="NSmlfN2d5O3RcSM8qMXl-448" vertex="1"><mxGeometry x="30" width="150" height="30" as="geometry"/></mxCell><mxCell id="NSmlfN2d5O3RcSM8qMXl-451" style="shape=partialRectangle;collapsible=0;dropTarget=0;pointerEvents=0;fillColor=none;top=0;left=0;bottom=0;right=0;points=[[0,0.5],[1,0.5]];portConstraint=eastwest;" parent="NSmlfN2d5O3RcSM8qMXl-438" vertex="1"><mxGeometry y="150" width="180" height="30" as="geometry"/></mxCell><mxCell id="NSmlfN2d5O3RcSM8qMXl-452" style="shape=partialRectangle;connectable=0;fillColor=none;top=0;left=0;bottom=0;right=0;editable=1;overflow=hidden;" parent="NSmlfN2d5O3RcSM8qMXl-451" vertex="1"><mxGeometry width="30" height="30" as="geometry"/></mxCell><mxCell id="NSmlfN2d5O3RcSM8qMXl-453" value="quantityUsed" style="shape=partialRectangle;connectable=0;fillColor=none;top=0;left=0;bottom=0;right=0;align=left;spacingLeft=6;overflow=hidden;" parent="NSmlfN2d5O3RcSM8qMXl-451" vertex="1"><mxGeometry x="30" width="150" height="30" as="geometry"/></mxCell><mxCell id="NSmlfN2d5O3RcSM8qMXl-454" style="shape=partialRectangle;collapsible=0;dropTarget=0;pointerEvents=0;fillColor=none;top=0;left=0;bottom=0;right=0;points=[[0,0.5],[1,0.5]];portConstraint=eastwest;" parent="NSmlfN2d5O3RcSM8qMXl-438" vertex="1"><mxGeometry y="180" width="180" height="30" as="geometry"/></mxCell><mxCell id="NSmlfN2d5O3RcSM8qMXl-455" style="shape=partialRectangle;connectable=0;fillColor=none;top=0;left=0;bottom=0;right=0;editable=1;overflow=hidden;" parent="NSmlfN2d5O3RcSM8qMXl-454" vertex="1"><mxGeometry width="30" height="30" as="geometry"/></mxCell><mxCell id="NSmlfN2d5O3RcSM8qMXl-456" value="cost" style="shape=partialRectangle;connectable=0;fillColor=none;top=0;left=0;bottom=0;right=0;align=left;spacingLeft=6;overflow=hidden;" parent="NSmlfN2d5O3RcSM8qMXl-454" vertex="1"><mxGeometry x="30" width="150" height="30" as="geometry"/></mxCell><mxCell id="NSmlfN2d5O3RcSM8qMXl-457" value="TreatmentRecord" style="shape=table;startSize=30;container=1;collapsible=1;childLayout=tableLayout;fixedRows=1;rowLines=0;fontStyle=1;align=center;resizeLast=1;gradientColor=none;" parent="_7zzO1jFlr76pCo2bDKD-4" vertex="1"><mxGeometry y="770" width="185" height="190" as="geometry"/></mxCell><mxCell id="NSmlfN2d5O3RcSM8qMXl-458" value="" style="shape=partialRectangle;collapsible=0;dropTarget=0;pointerEvents=0;fillColor=none;top=0;left=0;bottom=1;right=0;points=[[0,0.5],[1,0.5]];portConstraint=eastwest;" parent="NSmlfN2d5O3RcSM8qMXl-457" vertex="1"><mxGeometry y="30" width="185" height="30" as="geometry"/></mxCell><mxCell id="NSmlfN2d5O3RcSM8qMXl-459" value="PK" style="shape=partialRectangle;connectable=0;fillColor=none;top=0;left=0;bottom=0;right=0;fontStyle=1;overflow=hidden;" parent="NSmlfN2d5O3RcSM8qMXl-458" vertex="1"><mxGeometry width="35" height="30" as="geometry"/></mxCell><mxCell id="NSmlfN2d5O3RcSM8qMXl-460" value="treatmentId" style="shape=partialRectangle;connectable=0;fillColor=none;top=0;left=0;bottom=0;right=0;align=left;spacingLeft=6;fontStyle=5;overflow=hidden;" parent="NSmlfN2d5O3RcSM8qMXl-458" vertex="1"><mxGeometry x="35" width="150" height="30" as="geometry"/></mxCell><mxCell id="NSmlfN2d5O3RcSM8qMXl-464" value="" style="shape=partialRectangle;collapsible=0;dropTarget=0;pointerEvents=0;fillColor=none;top=0;left=0;bottom=0;right=0;points=[[0,0.5],[1,0.5]];portConstraint=eastwest;" parent="NSmlfN2d5O3RcSM8qMXl-457" vertex="1"><mxGeometry y="60" width="185" height="30" as="geometry"/></mxCell><mxCell id="NSmlfN2d5O3RcSM8qMXl-465" value="FK" style="shape=partialRectangle;connectable=0;fillColor=none;top=0;left=0;bottom=0;right=0;editable=1;overflow=hidden;" parent="NSmlfN2d5O3RcSM8qMXl-464" vertex="1"><mxGeometry width="35" height="30" as="geometry"/></mxCell><mxCell id="NSmlfN2d5O3RcSM8qMXl-466" value="petId" style="shape=partialRectangle;connectable=0;fillColor=none;top=0;left=0;bottom=0;right=0;align=left;spacingLeft=6;overflow=hidden;" parent="NSmlfN2d5O3RcSM8qMXl-464" vertex="1"><mxGeometry x="35" width="150" height="30" as="geometry"/></mxCell><mxCell id="NSmlfN2d5O3RcSM8qMXl-482" style="shape=partialRectangle;collapsible=0;dropTarget=0;pointerEvents=0;fillColor=none;top=0;left=0;bottom=0;right=0;points=[[0,0.5],[1,0.5]];portConstraint=eastwest;" parent="NSmlfN2d5O3RcSM8qMXl-457" vertex="1"><mxGeometry y="90" width="185" height="30" as="geometry"/></mxCell><mxCell id="NSmlfN2d5O3RcSM8qMXl-483" style="shape=partialRectangle;connectable=0;fillColor=none;top=0;left=0;bottom=0;right=0;editable=1;overflow=hidden;" parent="NSmlfN2d5O3RcSM8qMXl-482" vertex="1"><mxGeometry width="35" height="30" as="geometry"/></mxCell><mxCell id="NSmlfN2d5O3RcSM8qMXl-484" value="treatmentName" style="shape=partialRectangle;connectable=0;fillColor=none;top=0;left=0;bottom=0;right=0;align=left;spacingLeft=6;overflow=hidden;" parent="NSmlfN2d5O3RcSM8qMXl-482" vertex="1"><mxGeometry x="35" width="150" height="30" as="geometry"/></mxCell><mxCell id="NSmlfN2d5O3RcSM8qMXl-485" style="shape=partialRectangle;collapsible=0;dropTarget=0;pointerEvents=0;fillColor=none;top=0;left=0;bottom=0;right=0;points=[[0,0.5],[1,0.5]];portConstraint=eastwest;" parent="NSmlfN2d5O3RcSM8qMXl-457" vertex="1"><mxGeometry y="120" width="185" height="30" as="geometry"/></mxCell><mxCell id="NSmlfN2d5O3RcSM8qMXl-486" style="shape=partialRectangle;connectable=0;fillColor=none;top=0;left=0;bottom=0;right=0;editable=1;overflow=hidden;" parent="NSmlfN2d5O3RcSM8qMXl-485" vertex="1"><mxGeometry width="35" height="30" as="geometry"/></mxCell><mxCell id="NSmlfN2d5O3RcSM8qMXl-487" value="treatmentDescription" style="shape=partialRectangle;connectable=0;fillColor=none;top=0;left=0;bottom=0;right=0;align=left;spacingLeft=6;overflow=hidden;" parent="NSmlfN2d5O3RcSM8qMXl-485" vertex="1"><mxGeometry x="35" width="150" height="30" as="geometry"/></mxCell><mxCell id="NSmlfN2d5O3RcSM8qMXl-488" style="shape=partialRectangle;collapsible=0;dropTarget=0;pointerEvents=0;fillColor=none;top=0;left=0;bottom=0;right=0;points=[[0,0.5],[1,0.5]];portConstraint=eastwest;" parent="NSmlfN2d5O3RcSM8qMXl-457" vertex="1"><mxGeometry y="150" width="185" height="30" as="geometry"/></mxCell><mxCell id="NSmlfN2d5O3RcSM8qMXl-489" style="shape=partialRectangle;connectable=0;fillColor=none;top=0;left=0;bottom=0;right=0;editable=1;overflow=hidden;" parent="NSmlfN2d5O3RcSM8qMXl-488" vertex="1"><mxGeometry width="35" height="30" as="geometry"/></mxCell><mxCell id="NSmlfN2d5O3RcSM8qMXl-490" value="otherEventDetails" style="shape=partialRectangle;connectable=0;fillColor=none;top=0;left=0;bottom=0;right=0;align=left;spacingLeft=6;overflow=hidden;" parent="NSmlfN2d5O3RcSM8qMXl-488" vertex="1"><mxGeometry x="35" width="150" height="30" as="geometry"/></mxCell><mxCell id="NSmlfN2d5O3RcSM8qMXl-491" value="TreatmentMedication" style="shape=table;startSize=30;container=1;collapsible=1;childLayout=tableLayout;fixedRows=1;rowLines=0;fontStyle=1;align=center;resizeLast=1;gradientColor=none;" parent="_7zzO1jFlr76pCo2bDKD-4" vertex="1"><mxGeometry y="980" width="185" height="310" as="geometry"><mxRectangle x="880" y="1910" width="150" height="30" as="alternateBounds"/></mxGeometry></mxCell><mxCell id="vVbPWBPVX9zCDqlzGk4p-8" style="shape=partialRectangle;collapsible=0;dropTarget=0;pointerEvents=0;fillColor=none;top=0;left=0;bottom=0;right=0;points=[[0,0.5],[1,0.5]];portConstraint=eastwest;" parent="NSmlfN2d5O3RcSM8qMXl-491" vertex="1"><mxGeometry y="30" width="185" height="30" as="geometry"/></mxCell><mxCell id="vVbPWBPVX9zCDqlzGk4p-9" value="PK" style="shape=partialRectangle;connectable=0;fillColor=none;top=0;left=0;bottom=0;right=0;editable=1;overflow=hidden;" parent="vVbPWBPVX9zCDqlzGk4p-8" vertex="1"><mxGeometry width="35" height="30" as="geometry"/></mxCell><mxCell id="vVbPWBPVX9zCDqlzGk4p-10" value="treatment" style="shape=partialRectangle;connectable=0;fillColor=none;top=0;left=0;bottom=0;right=0;align=left;spacingLeft=6;overflow=hidden;" parent="vVbPWBPVX9zCDqlzGk4p-8" vertex="1"><mxGeometry x="35" width="150" height="30" as="geometry"/></mxCell><mxCell id="NSmlfN2d5O3RcSM8qMXl-498" style="shape=partialRectangle;collapsible=0;dropTarget=0;pointerEvents=0;fillColor=none;top=0;left=0;bottom=0;right=0;points=[[0,0.5],[1,0.5]];portConstraint=eastwest;" parent="NSmlfN2d5O3RcSM8qMXl-491" vertex="1"><mxGeometry y="60" width="185" height="30" as="geometry"/></mxCell><mxCell id="NSmlfN2d5O3RcSM8qMXl-499" value="FK" style="shape=partialRectangle;connectable=0;fillColor=none;top=0;left=0;bottom=0;right=0;editable=1;overflow=hidden;" parent="NSmlfN2d5O3RcSM8qMXl-498" vertex="1"><mxGeometry width="35" height="30" as="geometry"/></mxCell><mxCell id="NSmlfN2d5O3RcSM8qMXl-500" value="medicationId" style="shape=partialRectangle;connectable=0;fillColor=none;top=0;left=0;bottom=0;right=0;align=left;spacingLeft=6;overflow=hidden;" parent="NSmlfN2d5O3RcSM8qMXl-498" vertex="1"><mxGeometry x="35" width="150" height="30" as="geometry"/></mxCell><mxCell id="NSmlfN2d5O3RcSM8qMXl-495" value="" style="shape=partialRectangle;collapsible=0;dropTarget=0;pointerEvents=0;fillColor=none;top=0;left=0;bottom=0;right=0;points=[[0,0.5],[1,0.5]];portConstraint=eastwest;" parent="NSmlfN2d5O3RcSM8qMXl-491" vertex="1"><mxGeometry y="90" width="185" height="30" as="geometry"/></mxCell><mxCell id="NSmlfN2d5O3RcSM8qMXl-496" value="" style="shape=partialRectangle;connectable=0;fillColor=none;top=0;left=0;bottom=0;right=0;editable=1;overflow=hidden;" parent="NSmlfN2d5O3RcSM8qMXl-495" vertex="1"><mxGeometry width="35" height="30" as="geometry"/></mxCell><mxCell id="NSmlfN2d5O3RcSM8qMXl-497" value="treatmentId" style="shape=partialRectangle;connectable=0;fillColor=none;top=0;left=0;bottom=0;right=0;align=left;spacingLeft=6;overflow=hidden;" parent="NSmlfN2d5O3RcSM8qMXl-495" vertex="1"><mxGeometry x="35" width="150" height="30" as="geometry"/></mxCell><mxCell id="NSmlfN2d5O3RcSM8qMXl-504" style="shape=partialRectangle;collapsible=0;dropTarget=0;pointerEvents=0;fillColor=none;top=0;left=0;bottom=0;right=0;points=[[0,0.5],[1,0.5]];portConstraint=eastwest;" parent="NSmlfN2d5O3RcSM8qMXl-491" vertex="1"><mxGeometry y="120" width="185" height="30" as="geometry"/></mxCell><mxCell id="NSmlfN2d5O3RcSM8qMXl-505" style="shape=partialRectangle;connectable=0;fillColor=none;top=0;left=0;bottom=0;right=0;editable=1;overflow=hidden;" parent="NSmlfN2d5O3RcSM8qMXl-504" vertex="1"><mxGeometry width="35" height="30" as="geometry"/></mxCell><mxCell id="NSmlfN2d5O3RcSM8qMXl-506" value="cost" style="shape=partialRectangle;connectable=0;fillColor=none;top=0;left=0;bottom=0;right=0;align=left;spacingLeft=6;overflow=hidden;" parent="NSmlfN2d5O3RcSM8qMXl-504" vertex="1"><mxGeometry x="35" width="150" height="30" as="geometry"/></mxCell><mxCell id="NSmlfN2d5O3RcSM8qMXl-501" style="shape=partialRectangle;collapsible=0;dropTarget=0;pointerEvents=0;fillColor=none;top=0;left=0;bottom=0;right=0;points=[[0,0.5],[1,0.5]];portConstraint=eastwest;" parent="NSmlfN2d5O3RcSM8qMXl-491" vertex="1"><mxGeometry y="150" width="185" height="30" as="geometry"/></mxCell><mxCell id="NSmlfN2d5O3RcSM8qMXl-502" style="shape=partialRectangle;connectable=0;fillColor=none;top=0;left=0;bottom=0;right=0;editable=1;overflow=hidden;" parent="NSmlfN2d5O3RcSM8qMXl-501" vertex="1"><mxGeometry width="35" height="30" as="geometry"/></mxCell><mxCell id="NSmlfN2d5O3RcSM8qMXl-503" value="quantityUsed" style="shape=partialRectangle;connectable=0;fillColor=none;top=0;left=0;bottom=0;right=0;align=left;spacingLeft=6;overflow=hidden;" parent="NSmlfN2d5O3RcSM8qMXl-501" vertex="1"><mxGeometry x="35" width="150" height="30" as="geometry"/></mxCell><mxCell id="NSmlfN2d5O3RcSM8qMXl-507" value="Invoice" style="shape=table;startSize=30;container=1;collapsible=1;childLayout=tableLayout;fixedRows=1;rowLines=0;fontStyle=1;align=center;resizeLast=1;gradientColor=none;" parent="_7zzO1jFlr76pCo2bDKD-4" vertex="1"><mxGeometry x="420" y="990" width="180" height="220" as="geometry"/></mxCell><mxCell id="NSmlfN2d5O3RcSM8qMXl-508" value="" style="shape=partialRectangle;collapsible=0;dropTarget=0;pointerEvents=0;fillColor=none;top=0;left=0;bottom=1;right=0;points=[[0,0.5],[1,0.5]];portConstraint=eastwest;" parent="NSmlfN2d5O3RcSM8qMXl-507" vertex="1"><mxGeometry y="30" width="180" height="30" as="geometry"/></mxCell><mxCell id="NSmlfN2d5O3RcSM8qMXl-509" value="PK" style="shape=partialRectangle;connectable=0;fillColor=none;top=0;left=0;bottom=0;right=0;fontStyle=1;overflow=hidden;" parent="NSmlfN2d5O3RcSM8qMXl-508" vertex="1"><mxGeometry width="30" height="30" as="geometry"/></mxCell><mxCell id="NSmlfN2d5O3RcSM8qMXl-510" value="invoiceID" style="shape=partialRectangle;connectable=0;fillColor=none;top=0;left=0;bottom=0;right=0;align=left;spacingLeft=6;fontStyle=5;overflow=hidden;" parent="NSmlfN2d5O3RcSM8qMXl-508" vertex="1"><mxGeometry x="30" width="150" height="30" as="geometry"/></mxCell><mxCell id="NSmlfN2d5O3RcSM8qMXl-511" value="" style="shape=partialRectangle;collapsible=0;dropTarget=0;pointerEvents=0;fillColor=none;top=0;left=0;bottom=0;right=0;points=[[0,0.5],[1,0.5]];portConstraint=eastwest;" parent="NSmlfN2d5O3RcSM8qMXl-507" vertex="1"><mxGeometry y="60" width="180" height="30" as="geometry"/></mxCell><mxCell id="NSmlfN2d5O3RcSM8qMXl-512" value="" style="shape=partialRectangle;connectable=0;fillColor=none;top=0;left=0;bottom=0;right=0;editable=1;overflow=hidden;" parent="NSmlfN2d5O3RcSM8qMXl-511" vertex="1"><mxGeometry width="30" height="30" as="geometry"/></mxCell><mxCell id="NSmlfN2d5O3RcSM8qMXl-513" value="datePresented" style="shape=partialRectangle;connectable=0;fillColor=none;top=0;left=0;bottom=0;right=0;align=left;spacingLeft=6;overflow=hidden;" parent="NSmlfN2d5O3RcSM8qMXl-511" vertex="1"><mxGeometry x="30" width="150" height="30" as="geometry"/></mxCell><mxCell id="NSmlfN2d5O3RcSM8qMXl-514" value="" style="shape=partialRectangle;collapsible=0;dropTarget=0;pointerEvents=0;fillColor=none;top=0;left=0;bottom=0;right=0;points=[[0,0.5],[1,0.5]];portConstraint=eastwest;" parent="NSmlfN2d5O3RcSM8qMXl-507" vertex="1"><mxGeometry y="90" width="180" height="30" as="geometry"/></mxCell><mxCell id="NSmlfN2d5O3RcSM8qMXl-515" value="" style="shape=partialRectangle;connectable=0;fillColor=none;top=0;left=0;bottom=0;right=0;editable=1;overflow=hidden;" parent="NSmlfN2d5O3RcSM8qMXl-514" vertex="1"><mxGeometry width="30" height="30" as="geometry"/></mxCell><mxCell id="NSmlfN2d5O3RcSM8qMXl-516" value="datePaid" style="shape=partialRectangle;connectable=0;fillColor=none;top=0;left=0;bottom=0;right=0;align=left;spacingLeft=6;overflow=hidden;" parent="NSmlfN2d5O3RcSM8qMXl-514" vertex="1"><mxGeometry x="30" width="150" height="30" as="geometry"/></mxCell><mxCell id="NSmlfN2d5O3RcSM8qMXl-517" value="" style="shape=partialRectangle;collapsible=0;dropTarget=0;pointerEvents=0;fillColor=none;top=0;left=0;bottom=0;right=0;points=[[0,0.5],[1,0.5]];portConstraint=eastwest;" parent="NSmlfN2d5O3RcSM8qMXl-507" vertex="1"><mxGeometry y="120" width="180" height="30" as="geometry"/></mxCell><mxCell id="NSmlfN2d5O3RcSM8qMXl-518" value="" style="shape=partialRectangle;connectable=0;fillColor=none;top=0;left=0;bottom=0;right=0;editable=1;overflow=hidden;" parent="NSmlfN2d5O3RcSM8qMXl-517" vertex="1"><mxGeometry width="30" height="30" as="geometry"/></mxCell><mxCell id="NSmlfN2d5O3RcSM8qMXl-519" value="invoiceAmount" style="shape=partialRectangle;connectable=0;fillColor=none;top=0;left=0;bottom=0;right=0;align=left;spacingLeft=6;overflow=hidden;" parent="NSmlfN2d5O3RcSM8qMXl-517" vertex="1"><mxGeometry x="30" width="150" height="30" as="geometry"/></mxCell><mxCell id="NSmlfN2d5O3RcSM8qMXl-520" style="shape=partialRectangle;collapsible=0;dropTarget=0;pointerEvents=0;fillColor=none;top=0;left=0;bottom=0;right=0;points=[[0,0.5],[1,0.5]];portConstraint=eastwest;" parent="NSmlfN2d5O3RcSM8qMXl-507" vertex="1"><mxGeometry y="150" width="180" height="30" as="geometry"/></mxCell><mxCell id="NSmlfN2d5O3RcSM8qMXl-521" style="shape=partialRectangle;connectable=0;fillColor=none;top=0;left=0;bottom=0;right=0;editable=1;overflow=hidden;" parent="NSmlfN2d5O3RcSM8qMXl-520" vertex="1"><mxGeometry width="30" height="30" as="geometry"/></mxCell><mxCell id="NSmlfN2d5O3RcSM8qMXl-522" value="outstandingAmount" style="shape=partialRectangle;connectable=0;fillColor=none;top=0;left=0;bottom=0;right=0;align=left;spacingLeft=6;overflow=hidden;" parent="NSmlfN2d5O3RcSM8qMXl-520" vertex="1"><mxGeometry x="30" width="150" height="30" as="geometry"/></mxCell><mxCell id="NSmlfN2d5O3RcSM8qMXl-523" style="shape=partialRectangle;collapsible=0;dropTarget=0;pointerEvents=0;fillColor=none;top=0;left=0;bottom=0;right=0;points=[[0,0.5],[1,0.5]];portConstraint=eastwest;" parent="NSmlfN2d5O3RcSM8qMXl-507" vertex="1"><mxGeometry y="180" width="180" height="30" as="geometry"/></mxCell><mxCell id="NSmlfN2d5O3RcSM8qMXl-524" style="shape=partialRectangle;connectable=0;fillColor=none;top=0;left=0;bottom=0;right=0;editable=1;overflow=hidden;" parent="NSmlfN2d5O3RcSM8qMXl-523" vertex="1"><mxGeometry width="30" height="30" as="geometry"/></mxCell><mxCell id="NSmlfN2d5O3RcSM8qMXl-525" value="comments" style="shape=partialRectangle;connectable=0;fillColor=none;top=0;left=0;bottom=0;right=0;align=left;spacingLeft=6;overflow=hidden;" parent="NSmlfN2d5O3RcSM8qMXl-523" vertex="1"><mxGeometry x="30" width="150" height="30" as="geometry"/></mxCell><mxCell id="NSmlfN2d5O3RcSM8qMXl-197" value="User" style="shape=table;startSize=30;container=1;collapsible=1;childLayout=tableLayout;fixedRows=1;rowLines=0;fontStyle=1;align=center;resizeLast=1;gradientColor=none;" parent="_7zzO1jFlr76pCo2bDKD-4" vertex="1"><mxGeometry x="290" width="180" height="130" as="geometry"/></mxCell><mxCell id="NSmlfN2d5O3RcSM8qMXl-198" value="" style="shape=partialRectangle;collapsible=0;dropTarget=0;pointerEvents=0;fillColor=none;top=0;left=0;bottom=1;right=0;points=[[0,0.5],[1,0.5]];portConstraint=eastwest;" parent="NSmlfN2d5O3RcSM8qMXl-197" vertex="1"><mxGeometry y="30" width="180" height="30" as="geometry"/></mxCell><mxCell id="NSmlfN2d5O3RcSM8qMXl-199" value="PK" style="shape=partialRectangle;connectable=0;fillColor=none;top=0;left=0;bottom=0;right=0;fontStyle=1;overflow=hidden;" parent="NSmlfN2d5O3RcSM8qMXl-198" vertex="1"><mxGeometry width="30" height="30" as="geometry"/></mxCell><mxCell id="NSmlfN2d5O3RcSM8qMXl-200" value="username" style="shape=partialRectangle;connectable=0;fillColor=none;top=0;left=0;bottom=0;right=0;align=left;spacingLeft=6;fontStyle=5;overflow=hidden;" parent="NSmlfN2d5O3RcSM8qMXl-198" vertex="1"><mxGeometry x="30" width="150" height="30" as="geometry"/></mxCell><mxCell id="NSmlfN2d5O3RcSM8qMXl-201" value="" style="shape=partialRectangle;collapsible=0;dropTarget=0;pointerEvents=0;fillColor=none;top=0;left=0;bottom=0;right=0;points=[[0,0.5],[1,0.5]];portConstraint=eastwest;" parent="NSmlfN2d5O3RcSM8qMXl-197" vertex="1"><mxGeometry y="60" width="180" height="30" as="geometry"/></mxCell><mxCell id="NSmlfN2d5O3RcSM8qMXl-202" value="" style="shape=partialRectangle;connectable=0;fillColor=none;top=0;left=0;bottom=0;right=0;editable=1;overflow=hidden;" parent="NSmlfN2d5O3RcSM8qMXl-201" vertex="1"><mxGeometry width="30" height="30" as="geometry"/></mxCell><mxCell id="NSmlfN2d5O3RcSM8qMXl-203" value="password" style="shape=partialRectangle;connectable=0;fillColor=none;top=0;left=0;bottom=0;right=0;align=left;spacingLeft=6;overflow=hidden;" parent="NSmlfN2d5O3RcSM8qMXl-201" vertex="1"><mxGeometry x="30" width="150" height="30" as="geometry"/></mxCell><mxCell id="NSmlfN2d5O3RcSM8qMXl-204" value="" style="shape=partialRectangle;collapsible=0;dropTarget=0;pointerEvents=0;fillColor=none;top=0;left=0;bottom=0;right=0;points=[[0,0.5],[1,0.5]];portConstraint=eastwest;" parent="NSmlfN2d5O3RcSM8qMXl-197" vertex="1"><mxGeometry y="90" width="180" height="30" as="geometry"/></mxCell><mxCell id="NSmlfN2d5O3RcSM8qMXl-205" value="" style="shape=partialRectangle;connectable=0;fillColor=none;top=0;left=0;bottom=0;right=0;editable=1;overflow=hidden;" parent="NSmlfN2d5O3RcSM8qMXl-204" vertex="1"><mxGeometry width="30" height="30" as="geometry"/></mxCell><mxCell id="NSmlfN2d5O3RcSM8qMXl-206" value="enabled" style="shape=partialRectangle;connectable=0;fillColor=none;top=0;left=0;bottom=0;right=0;align=left;spacingLeft=6;overflow=hidden;" parent="NSmlfN2d5O3RcSM8qMXl-204" vertex="1"><mxGeometry x="30" width="150" height="30" as="geometry"/></mxCell><mxCell id="NSmlfN2d5O3RcSM8qMXl-222" value="UserAuthority" style="shape=table;startSize=30;container=1;collapsible=1;childLayout=tableLayout;fixedRows=1;rowLines=0;fontStyle=1;align=center;resizeLast=1;gradientColor=none;" parent="_7zzO1jFlr76pCo2bDKD-4" vertex="1"><mxGeometry x="510" width="180" height="130" as="geometry"/></mxCell><mxCell id="vVbPWBPVX9zCDqlzGk4p-17" style="shape=partialRectangle;collapsible=0;dropTarget=0;pointerEvents=0;fillColor=none;top=0;left=0;bottom=0;right=0;points=[[0,0.5],[1,0.5]];portConstraint=eastwest;" parent="NSmlfN2d5O3RcSM8qMXl-222" vertex="1"><mxGeometry y="30" width="180" height="30" as="geometry"/></mxCell><mxCell id="vVbPWBPVX9zCDqlzGk4p-18" value="PK" style="shape=partialRectangle;connectable=0;fillColor=none;top=0;left=0;bottom=0;right=0;editable=1;overflow=hidden;" parent="vVbPWBPVX9zCDqlzGk4p-17" vertex="1"><mxGeometry width="30" height="30" as="geometry"/></mxCell><mxCell id="vVbPWBPVX9zCDqlzGk4p-19" value="UserAuthorityId" style="shape=partialRectangle;connectable=0;fillColor=none;top=0;left=0;bottom=0;right=0;align=left;spacingLeft=6;overflow=hidden;" parent="vVbPWBPVX9zCDqlzGk4p-17" vertex="1"><mxGeometry x="30" width="150" height="30" as="geometry"/></mxCell><mxCell id="NSmlfN2d5O3RcSM8qMXl-226" value="" style="shape=partialRectangle;collapsible=0;dropTarget=0;pointerEvents=0;fillColor=none;top=0;left=0;bottom=0;right=0;points=[[0,0.5],[1,0.5]];portConstraint=eastwest;" parent="NSmlfN2d5O3RcSM8qMXl-222" vertex="1"><mxGeometry y="60" width="180" height="30" as="geometry"/></mxCell><mxCell id="NSmlfN2d5O3RcSM8qMXl-227" value="FK" style="shape=partialRectangle;connectable=0;fillColor=none;top=0;left=0;bottom=0;right=0;editable=1;overflow=hidden;" parent="NSmlfN2d5O3RcSM8qMXl-226" vertex="1"><mxGeometry width="30" height="30" as="geometry"/></mxCell><mxCell id="NSmlfN2d5O3RcSM8qMXl-228" value="username" style="shape=partialRectangle;connectable=0;fillColor=none;top=0;left=0;bottom=0;right=0;align=left;spacingLeft=6;overflow=hidden;" parent="NSmlfN2d5O3RcSM8qMXl-226" vertex="1"><mxGeometry x="30" width="150" height="30" as="geometry"/></mxCell><mxCell id="NSmlfN2d5O3RcSM8qMXl-229" value="" style="shape=partialRectangle;collapsible=0;dropTarget=0;pointerEvents=0;fillColor=none;top=0;left=0;bottom=0;right=0;points=[[0,0.5],[1,0.5]];portConstraint=eastwest;" parent="NSmlfN2d5O3RcSM8qMXl-222" vertex="1"><mxGeometry y="90" width="180" height="30" as="geometry"/></mxCell><mxCell id="NSmlfN2d5O3RcSM8qMXl-230" value="FK" style="shape=partialRectangle;connectable=0;fillColor=none;top=0;left=0;bottom=0;right=0;editable=1;overflow=hidden;" parent="NSmlfN2d5O3RcSM8qMXl-229" vertex="1"><mxGeometry width="30" height="30" as="geometry"/></mxCell><mxCell id="NSmlfN2d5O3RcSM8qMXl-231" value="authority" style="shape=partialRectangle;connectable=0;fillColor=none;top=0;left=0;bottom=0;right=0;align=left;spacingLeft=6;overflow=hidden;" parent="NSmlfN2d5O3RcSM8qMXl-229" vertex="1"><mxGeometry x="30" width="150" height="30" as="geometry"/></mxCell><mxCell id="NSmlfN2d5O3RcSM8qMXl-346" value="Appointment" style="shape=table;startSize=30;container=1;collapsible=1;childLayout=tableLayout;fixedRows=1;rowLines=0;fontStyle=1;align=center;resizeLast=1;gradientColor=none;" parent="_7zzO1jFlr76pCo2bDKD-4" vertex="1"><mxGeometry y="470" width="185" height="280" as="geometry"/></mxCell><mxCell id="NSmlfN2d5O3RcSM8qMXl-347" value="" style="shape=partialRectangle;collapsible=0;dropTarget=0;pointerEvents=0;fillColor=none;top=0;left=0;bottom=1;right=0;points=[[0,0.5],[1,0.5]];portConstraint=eastwest;" parent="NSmlfN2d5O3RcSM8qMXl-346" vertex="1"><mxGeometry y="30" width="185" height="30" as="geometry"/></mxCell><mxCell id="NSmlfN2d5O3RcSM8qMXl-348" value="PK" style="shape=partialRectangle;connectable=0;fillColor=none;top=0;left=0;bottom=0;right=0;fontStyle=1;overflow=hidden;" parent="NSmlfN2d5O3RcSM8qMXl-347" vertex="1"><mxGeometry width="35" height="30" as="geometry"/></mxCell><mxCell id="NSmlfN2d5O3RcSM8qMXl-349" value="appointmentID" style="shape=partialRectangle;connectable=0;fillColor=none;top=0;left=0;bottom=0;right=0;align=left;spacingLeft=6;fontStyle=5;overflow=hidden;" parent="NSmlfN2d5O3RcSM8qMXl-347" vertex="1"><mxGeometry x="35" width="150" height="30" as="geometry"/></mxCell><mxCell id="NSmlfN2d5O3RcSM8qMXl-350" value="" style="shape=partialRectangle;collapsible=0;dropTarget=0;pointerEvents=0;fillColor=none;top=0;left=0;bottom=0;right=0;points=[[0,0.5],[1,0.5]];portConstraint=eastwest;" parent="NSmlfN2d5O3RcSM8qMXl-346" vertex="1"><mxGeometry y="60" width="185" height="30" as="geometry"/></mxCell><mxCell id="NSmlfN2d5O3RcSM8qMXl-351" value="" style="shape=partialRectangle;connectable=0;fillColor=none;top=0;left=0;bottom=0;right=0;editable=1;overflow=hidden;" parent="NSmlfN2d5O3RcSM8qMXl-350" vertex="1"><mxGeometry width="35" height="30" as="geometry"/></mxCell><mxCell id="NSmlfN2d5O3RcSM8qMXl-352" value="appointmentDate" style="shape=partialRectangle;connectable=0;fillColor=none;top=0;left=0;bottom=0;right=0;align=left;spacingLeft=6;overflow=hidden;" parent="NSmlfN2d5O3RcSM8qMXl-350" vertex="1"><mxGeometry x="35" width="150" height="30" as="geometry"/></mxCell><mxCell id="NSmlfN2d5O3RcSM8qMXl-353" value="" style="shape=partialRectangle;collapsible=0;dropTarget=0;pointerEvents=0;fillColor=none;top=0;left=0;bottom=0;right=0;points=[[0,0.5],[1,0.5]];portConstraint=eastwest;" parent="NSmlfN2d5O3RcSM8qMXl-346" vertex="1"><mxGeometry y="90" width="185" height="30" as="geometry"/></mxCell><mxCell id="NSmlfN2d5O3RcSM8qMXl-354" value="" style="shape=partialRectangle;connectable=0;fillColor=none;top=0;left=0;bottom=0;right=0;editable=1;overflow=hidden;" parent="NSmlfN2d5O3RcSM8qMXl-353" vertex="1"><mxGeometry width="35" height="30" as="geometry"/></mxCell><mxCell id="NSmlfN2d5O3RcSM8qMXl-355" value="appointmentTime" style="shape=partialRectangle;connectable=0;fillColor=none;top=0;left=0;bottom=0;right=0;align=left;spacingLeft=6;overflow=hidden;" parent="NSmlfN2d5O3RcSM8qMXl-353" vertex="1"><mxGeometry x="35" width="150" height="30" as="geometry"/></mxCell><mxCell id="NSmlfN2d5O3RcSM8qMXl-356" style="shape=partialRectangle;collapsible=0;dropTarget=0;pointerEvents=0;fillColor=none;top=0;left=0;bottom=0;right=0;points=[[0,0.5],[1,0.5]];portConstraint=eastwest;" parent="NSmlfN2d5O3RcSM8qMXl-346" vertex="1"><mxGeometry y="120" width="185" height="30" as="geometry"/></mxCell><mxCell id="NSmlfN2d5O3RcSM8qMXl-357" style="shape=partialRectangle;connectable=0;fillColor=none;top=0;left=0;bottom=0;right=0;editable=1;overflow=hidden;" parent="NSmlfN2d5O3RcSM8qMXl-356" vertex="1"><mxGeometry width="35" height="30" as="geometry"/></mxCell><mxCell id="NSmlfN2d5O3RcSM8qMXl-358" value="appointmentReason" style="shape=partialRectangle;connectable=0;fillColor=none;top=0;left=0;bottom=0;right=0;align=left;spacingLeft=6;overflow=hidden;" parent="NSmlfN2d5O3RcSM8qMXl-356" vertex="1"><mxGeometry x="35" width="150" height="30" as="geometry"/></mxCell><mxCell id="NSmlfN2d5O3RcSM8qMXl-359" style="shape=partialRectangle;collapsible=0;dropTarget=0;pointerEvents=0;fillColor=none;top=0;left=0;bottom=0;right=0;points=[[0,0.5],[1,0.5]];portConstraint=eastwest;" parent="NSmlfN2d5O3RcSM8qMXl-346" vertex="1"><mxGeometry y="150" width="185" height="30" as="geometry"/></mxCell><mxCell id="NSmlfN2d5O3RcSM8qMXl-360" style="shape=partialRectangle;connectable=0;fillColor=none;top=0;left=0;bottom=0;right=0;editable=1;overflow=hidden;" parent="NSmlfN2d5O3RcSM8qMXl-359" vertex="1"><mxGeometry width="35" height="30" as="geometry"/></mxCell><mxCell id="NSmlfN2d5O3RcSM8qMXl-361" value="appointmentNotes" style="shape=partialRectangle;connectable=0;fillColor=none;top=0;left=0;bottom=0;right=0;align=left;spacingLeft=6;overflow=hidden;" parent="NSmlfN2d5O3RcSM8qMXl-359" vertex="1"><mxGeometry x="35" width="150" height="30" as="geometry"/></mxCell><mxCell id="NSmlfN2d5O3RcSM8qMXl-362" style="shape=partialRectangle;collapsible=0;dropTarget=0;pointerEvents=0;fillColor=none;top=0;left=0;bottom=0;right=0;points=[[0,0.5],[1,0.5]];portConstraint=eastwest;" parent="NSmlfN2d5O3RcSM8qMXl-346" vertex="1"><mxGeometry y="180" width="185" height="30" as="geometry"/></mxCell><mxCell id="NSmlfN2d5O3RcSM8qMXl-363" value="FK" style="shape=partialRectangle;connectable=0;fillColor=none;top=0;left=0;bottom=0;right=0;editable=1;overflow=hidden;" parent="NSmlfN2d5O3RcSM8qMXl-362" vertex="1"><mxGeometry width="35" height="30" as="geometry"/></mxCell><mxCell id="NSmlfN2d5O3RcSM8qMXl-364" value="petId" style="shape=partialRectangle;connectable=0;fillColor=none;top=0;left=0;bottom=0;right=0;align=left;spacingLeft=6;overflow=hidden;" parent="NSmlfN2d5O3RcSM8qMXl-362" vertex="1"><mxGeometry x="35" width="150" height="30" as="geometry"/></mxCell><mxCell id="NSmlfN2d5O3RcSM8qMXl-365" style="shape=partialRectangle;collapsible=0;dropTarget=0;pointerEvents=0;fillColor=none;top=0;left=0;bottom=0;right=0;points=[[0,0.5],[1,0.5]];portConstraint=eastwest;" parent="NSmlfN2d5O3RcSM8qMXl-346" vertex="1"><mxGeometry y="210" width="185" height="30" as="geometry"/></mxCell><mxCell id="NSmlfN2d5O3RcSM8qMXl-366" value="FK" style="shape=partialRectangle;connectable=0;fillColor=none;top=0;left=0;bottom=0;right=0;editable=1;overflow=hidden;" parent="NSmlfN2d5O3RcSM8qMXl-365" vertex="1"><mxGeometry width="35" height="30" as="geometry"/></mxCell><mxCell id="NSmlfN2d5O3RcSM8qMXl-367" value="ownerId" style="shape=partialRectangle;connectable=0;fillColor=none;top=0;left=0;bottom=0;right=0;align=left;spacingLeft=6;overflow=hidden;" parent="NSmlfN2d5O3RcSM8qMXl-365" vertex="1"><mxGeometry x="35" width="150" height="30" as="geometry"/></mxCell><mxCell id="NSmlfN2d5O3RcSM8qMXl-368" style="shape=partialRectangle;collapsible=0;dropTarget=0;pointerEvents=0;fillColor=none;top=0;left=0;bottom=0;right=0;points=[[0,0.5],[1,0.5]];portConstraint=eastwest;" parent="NSmlfN2d5O3RcSM8qMXl-346" vertex="1"><mxGeometry y="240" width="185" height="30" as="geometry"/></mxCell><mxCell id="NSmlfN2d5O3RcSM8qMXl-369" value="FK" style="shape=partialRectangle;connectable=0;fillColor=none;top=0;left=0;bottom=0;right=0;editable=1;overflow=hidden;" parent="NSmlfN2d5O3RcSM8qMXl-368" vertex="1"><mxGeometry width="35" height="30" as="geometry"/></mxCell><mxCell id="NSmlfN2d5O3RcSM8qMXl-370" value="veterinaryRegistryId" style="shape=partialRectangle;connectable=0;fillColor=none;top=0;left=0;bottom=0;right=0;align=left;spacingLeft=6;overflow=hidden;" parent="NSmlfN2d5O3RcSM8qMXl-368" vertex="1"><mxGeometry x="35" width="150" height="30" as="geometry"/></mxCell><mxCell id="NSmlfN2d5O3RcSM8qMXl-134" value="Address (Abstract)" style="shape=table;startSize=30;container=1;collapsible=1;childLayout=tableLayout;fixedRows=1;rowLines=0;fontStyle=1;align=center;resizeLast=1;gradientColor=none;" parent="_7zzO1jFlr76pCo2bDKD-6" vertex="1"><mxGeometry width="180" height="250" as="geometry"/></mxCell><mxCell id="NSmlfN2d5O3RcSM8qMXl-135" value="" style="shape=partialRectangle;collapsible=0;dropTarget=0;pointerEvents=0;fillColor=none;top=0;left=0;bottom=1;right=0;points=[[0,0.5],[1,0.5]];portConstraint=eastwest;" parent="NSmlfN2d5O3RcSM8qMXl-134" vertex="1"><mxGeometry y="30" width="180" height="30" as="geometry"/></mxCell><mxCell id="NSmlfN2d5O3RcSM8qMXl-136" value="PK" style="shape=partialRectangle;connectable=0;fillColor=none;top=0;left=0;bottom=0;right=0;fontStyle=1;overflow=hidden;" parent="NSmlfN2d5O3RcSM8qMXl-135" vertex="1"><mxGeometry width="30" height="30" as="geometry"/></mxCell><mxCell id="NSmlfN2d5O3RcSM8qMXl-137" value="addressID" style="shape=partialRectangle;connectable=0;fillColor=none;top=0;left=0;bottom=0;right=0;align=left;spacingLeft=6;fontStyle=5;overflow=hidden;" parent="NSmlfN2d5O3RcSM8qMXl-135" vertex="1"><mxGeometry x="30" width="150" height="30" as="geometry"/></mxCell><mxCell id="NSmlfN2d5O3RcSM8qMXl-138" value="" style="shape=partialRectangle;collapsible=0;dropTarget=0;pointerEvents=0;fillColor=none;top=0;left=0;bottom=0;right=0;points=[[0,0.5],[1,0.5]];portConstraint=eastwest;" parent="NSmlfN2d5O3RcSM8qMXl-134" vertex="1"><mxGeometry y="60" width="180" height="30" as="geometry"/></mxCell><mxCell id="NSmlfN2d5O3RcSM8qMXl-139" value="" style="shape=partialRectangle;connectable=0;fillColor=none;top=0;left=0;bottom=0;right=0;editable=1;overflow=hidden;" parent="NSmlfN2d5O3RcSM8qMXl-138" vertex="1"><mxGeometry width="30" height="30" as="geometry"/></mxCell><mxCell id="NSmlfN2d5O3RcSM8qMXl-140" value="premise" style="shape=partialRectangle;connectable=0;fillColor=none;top=0;left=0;bottom=0;right=0;align=left;spacingLeft=6;overflow=hidden;" parent="NSmlfN2d5O3RcSM8qMXl-138" vertex="1"><mxGeometry x="30" width="150" height="30" as="geometry"/></mxCell><mxCell id="NSmlfN2d5O3RcSM8qMXl-141" value="" style="shape=partialRectangle;collapsible=0;dropTarget=0;pointerEvents=0;fillColor=none;top=0;left=0;bottom=0;right=0;points=[[0,0.5],[1,0.5]];portConstraint=eastwest;" parent="NSmlfN2d5O3RcSM8qMXl-134" vertex="1"><mxGeometry y="90" width="180" height="30" as="geometry"/></mxCell><mxCell id="NSmlfN2d5O3RcSM8qMXl-142" value="" style="shape=partialRectangle;connectable=0;fillColor=none;top=0;left=0;bottom=0;right=0;editable=1;overflow=hidden;" parent="NSmlfN2d5O3RcSM8qMXl-141" vertex="1"><mxGeometry width="30" height="30" as="geometry"/></mxCell><mxCell id="NSmlfN2d5O3RcSM8qMXl-143" value="street" style="shape=partialRectangle;connectable=0;fillColor=none;top=0;left=0;bottom=0;right=0;align=left;spacingLeft=6;overflow=hidden;" parent="NSmlfN2d5O3RcSM8qMXl-141" vertex="1"><mxGeometry x="30" width="150" height="30" as="geometry"/></mxCell><mxCell id="NSmlfN2d5O3RcSM8qMXl-144" value="" style="shape=partialRectangle;collapsible=0;dropTarget=0;pointerEvents=0;fillColor=none;top=0;left=0;bottom=0;right=0;points=[[0,0.5],[1,0.5]];portConstraint=eastwest;" parent="NSmlfN2d5O3RcSM8qMXl-134" vertex="1"><mxGeometry y="120" width="180" height="30" as="geometry"/></mxCell><mxCell id="NSmlfN2d5O3RcSM8qMXl-145" value="" style="shape=partialRectangle;connectable=0;fillColor=none;top=0;left=0;bottom=0;right=0;editable=1;overflow=hidden;" parent="NSmlfN2d5O3RcSM8qMXl-144" vertex="1"><mxGeometry width="30" height="30" as="geometry"/></mxCell><mxCell id="NSmlfN2d5O3RcSM8qMXl-146" value="city" style="shape=partialRectangle;connectable=0;fillColor=none;top=0;left=0;bottom=0;right=0;align=left;spacingLeft=6;overflow=hidden;" parent="NSmlfN2d5O3RcSM8qMXl-144" vertex="1"><mxGeometry x="30" width="150" height="30" as="geometry"/></mxCell><mxCell id="NSmlfN2d5O3RcSM8qMXl-147" style="shape=partialRectangle;collapsible=0;dropTarget=0;pointerEvents=0;fillColor=none;top=0;left=0;bottom=0;right=0;points=[[0,0.5],[1,0.5]];portConstraint=eastwest;" parent="NSmlfN2d5O3RcSM8qMXl-134" vertex="1"><mxGeometry y="150" width="180" height="30" as="geometry"/></mxCell><mxCell id="NSmlfN2d5O3RcSM8qMXl-148" style="shape=partialRectangle;connectable=0;fillColor=none;top=0;left=0;bottom=0;right=0;editable=1;overflow=hidden;" parent="NSmlfN2d5O3RcSM8qMXl-147" vertex="1"><mxGeometry width="30" height="30" as="geometry"/></mxCell><mxCell id="NSmlfN2d5O3RcSM8qMXl-149" value="county" style="shape=partialRectangle;connectable=0;fillColor=none;top=0;left=0;bottom=0;right=0;align=left;spacingLeft=6;overflow=hidden;" parent="NSmlfN2d5O3RcSM8qMXl-147" vertex="1"><mxGeometry x="30" width="150" height="30" as="geometry"/></mxCell><mxCell id="NSmlfN2d5O3RcSM8qMXl-150" style="shape=partialRectangle;collapsible=0;dropTarget=0;pointerEvents=0;fillColor=none;top=0;left=0;bottom=0;right=0;points=[[0,0.5],[1,0.5]];portConstraint=eastwest;" parent="NSmlfN2d5O3RcSM8qMXl-134" vertex="1"><mxGeometry y="180" width="180" height="30" as="geometry"/></mxCell><mxCell id="NSmlfN2d5O3RcSM8qMXl-151" style="shape=partialRectangle;connectable=0;fillColor=none;top=0;left=0;bottom=0;right=0;editable=1;overflow=hidden;" parent="NSmlfN2d5O3RcSM8qMXl-150" vertex="1"><mxGeometry width="30" height="30" as="geometry"/></mxCell><mxCell id="NSmlfN2d5O3RcSM8qMXl-152" value="country" style="shape=partialRectangle;connectable=0;fillColor=none;top=0;left=0;bottom=0;right=0;align=left;spacingLeft=6;overflow=hidden;" parent="NSmlfN2d5O3RcSM8qMXl-150" vertex="1"><mxGeometry x="30" width="150" height="30" as="geometry"/></mxCell><mxCell id="NSmlfN2d5O3RcSM8qMXl-153" style="shape=partialRectangle;collapsible=0;dropTarget=0;pointerEvents=0;fillColor=none;top=0;left=0;bottom=0;right=0;points=[[0,0.5],[1,0.5]];portConstraint=eastwest;" parent="NSmlfN2d5O3RcSM8qMXl-134" vertex="1"><mxGeometry y="210" width="180" height="30" as="geometry"/></mxCell><mxCell id="NSmlfN2d5O3RcSM8qMXl-154" style="shape=partialRectangle;connectable=0;fillColor=none;top=0;left=0;bottom=0;right=0;editable=1;overflow=hidden;" parent="NSmlfN2d5O3RcSM8qMXl-153" vertex="1"><mxGeometry width="30" height="30" as="geometry"/></mxCell><mxCell id="NSmlfN2d5O3RcSM8qMXl-155" value="postcode" style="shape=partialRectangle;connectable=0;fillColor=none;top=0;left=0;bottom=0;right=0;align=left;spacingLeft=6;overflow=hidden;" parent="NSmlfN2d5O3RcSM8qMXl-153" vertex="1"><mxGeometry x="30" width="150" height="30" as="geometry"/></mxCell><mxCell id="NSmlfN2d5O3RcSM8qMXl-159" value="HomeAddress" style="shape=table;startSize=30;container=1;collapsible=1;childLayout=tableLayout;fixedRows=1;rowLines=0;fontStyle=1;align=center;resizeLast=1;" parent="_7zzO1jFlr76pCo2bDKD-6" vertex="1"><mxGeometry x="200" width="180" height="60" as="geometry"><mxRectangle x="40" y="1000" width="70" height="30" as="alternateBounds"/></mxGeometry></mxCell><mxCell id="NSmlfN2d5O3RcSM8qMXl-160" value="" style="shape=partialRectangle;collapsible=0;dropTarget=0;pointerEvents=0;fillColor=none;top=0;left=0;bottom=0;right=0;points=[[0,0.5],[1,0.5]];portConstraint=eastwest;" parent="NSmlfN2d5O3RcSM8qMXl-159" vertex="1"><mxGeometry y="30" width="180" height="30" as="geometry"/></mxCell><mxCell id="NSmlfN2d5O3RcSM8qMXl-161" value="PK" style="shape=partialRectangle;connectable=0;fillColor=none;top=0;left=0;bottom=0;right=0;editable=1;overflow=hidden;fontStyle=1" parent="NSmlfN2d5O3RcSM8qMXl-160" vertex="1"><mxGeometry width="30" height="30" as="geometry"/></mxCell><mxCell id="NSmlfN2d5O3RcSM8qMXl-162" value="homeAddressId" style="shape=partialRectangle;connectable=0;fillColor=none;top=0;left=0;bottom=0;right=0;align=left;spacingLeft=6;overflow=hidden;fontStyle=1" parent="NSmlfN2d5O3RcSM8qMXl-160" vertex="1"><mxGeometry x="30" width="150" height="30" as="geometry"/></mxCell><mxCell id="NSmlfN2d5O3RcSM8qMXl-280" value="Owner" style="shape=table;startSize=30;container=1;collapsible=1;childLayout=tableLayout;fixedRows=1;rowLines=0;fontStyle=1;align=center;resizeLast=1;gradientColor=none;" parent="1" vertex="1"><mxGeometry x="260" y="1720" width="180" height="70" as="geometry"/></mxCell><mxCell id="NSmlfN2d5O3RcSM8qMXl-281" value="" style="shape=partialRectangle;collapsible=0;dropTarget=0;pointerEvents=0;fillColor=none;top=0;left=0;bottom=1;right=0;points=[[0,0.5],[1,0.5]];portConstraint=eastwest;" parent="NSmlfN2d5O3RcSM8qMXl-280" vertex="1"><mxGeometry y="30" width="180" height="30" as="geometry"/></mxCell><mxCell id="NSmlfN2d5O3RcSM8qMXl-282" value="PK" style="shape=partialRectangle;connectable=0;fillColor=none;top=0;left=0;bottom=0;right=0;fontStyle=1;overflow=hidden;" parent="NSmlfN2d5O3RcSM8qMXl-281" vertex="1"><mxGeometry width="30" height="30" as="geometry"/></mxCell><mxCell id="NSmlfN2d5O3RcSM8qMXl-283" value="ownerID" style="shape=partialRectangle;connectable=0;fillColor=none;top=0;left=0;bottom=0;right=0;align=left;spacingLeft=6;fontStyle=5;overflow=hidden;" parent="NSmlfN2d5O3RcSM8qMXl-281" vertex="1"><mxGeometry x="30" width="150" height="30" as="geometry"/></mxCell><mxCell id="NSmlfN2d5O3RcSM8qMXl-296" value="ContactDetails" style="shape=table;startSize=30;container=1;collapsible=1;childLayout=tableLayout;fixedRows=1;rowLines=0;fontStyle=1;align=center;resizeLast=1;gradientColor=none;" parent="1" vertex="1"><mxGeometry x="60" y="1720" width="180" height="190" as="geometry"/></mxCell><mxCell id="NSmlfN2d5O3RcSM8qMXl-297" value="" style="shape=partialRectangle;collapsible=0;dropTarget=0;pointerEvents=0;fillColor=none;top=0;left=0;bottom=1;right=0;points=[[0,0.5],[1,0.5]];portConstraint=eastwest;" parent="NSmlfN2d5O3RcSM8qMXl-296" vertex="1"><mxGeometry y="30" width="180" height="30" as="geometry"/></mxCell><mxCell id="NSmlfN2d5O3RcSM8qMXl-298" value="PK" style="shape=partialRectangle;connectable=0;fillColor=none;top=0;left=0;bottom=0;right=0;fontStyle=1;overflow=hidden;" parent="NSmlfN2d5O3RcSM8qMXl-297" vertex="1"><mxGeometry width="30" height="30" as="geometry"/></mxCell><mxCell id="NSmlfN2d5O3RcSM8qMXl-299" value="contactID" style="shape=partialRectangle;connectable=0;fillColor=none;top=0;left=0;bottom=0;right=0;align=left;spacingLeft=6;fontStyle=5;overflow=hidden;" parent="NSmlfN2d5O3RcSM8qMXl-297" vertex="1"><mxGeometry x="30" width="150" height="30" as="geometry"/></mxCell><mxCell id="NSmlfN2d5O3RcSM8qMXl-300" value="" style="shape=partialRectangle;collapsible=0;dropTarget=0;pointerEvents=0;fillColor=none;top=0;left=0;bottom=0;right=0;points=[[0,0.5],[1,0.5]];portConstraint=eastwest;" parent="NSmlfN2d5O3RcSM8qMXl-296" vertex="1"><mxGeometry y="60" width="180" height="30" as="geometry"/></mxCell><mxCell id="NSmlfN2d5O3RcSM8qMXl-301" value="" style="shape=partialRectangle;connectable=0;fillColor=none;top=0;left=0;bottom=0;right=0;editable=1;overflow=hidden;" parent="NSmlfN2d5O3RcSM8qMXl-300" vertex="1"><mxGeometry width="30" height="30" as="geometry"/></mxCell><mxCell id="NSmlfN2d5O3RcSM8qMXl-302" value="emailAddress" style="shape=partialRectangle;connectable=0;fillColor=none;top=0;left=0;bottom=0;right=0;align=left;spacingLeft=6;overflow=hidden;" parent="NSmlfN2d5O3RcSM8qMXl-300" vertex="1"><mxGeometry x="30" width="150" height="30" as="geometry"/></mxCell><mxCell id="NSmlfN2d5O3RcSM8qMXl-303" value="" style="shape=partialRectangle;collapsible=0;dropTarget=0;pointerEvents=0;fillColor=none;top=0;left=0;bottom=0;right=0;points=[[0,0.5],[1,0.5]];portConstraint=eastwest;" parent="NSmlfN2d5O3RcSM8qMXl-296" vertex="1"><mxGeometry y="90" width="180" height="30" as="geometry"/></mxCell><mxCell id="NSmlfN2d5O3RcSM8qMXl-304" value="" style="shape=partialRectangle;connectable=0;fillColor=none;top=0;left=0;bottom=0;right=0;editable=1;overflow=hidden;" parent="NSmlfN2d5O3RcSM8qMXl-303" vertex="1"><mxGeometry width="30" height="30" as="geometry"/></mxCell><mxCell id="NSmlfN2d5O3RcSM8qMXl-305" value="mobileTelNo" style="shape=partialRectangle;connectable=0;fillColor=none;top=0;left=0;bottom=0;right=0;align=left;spacingLeft=6;overflow=hidden;" parent="NSmlfN2d5O3RcSM8qMXl-303" vertex="1"><mxGeometry x="30" width="150" height="30" as="geometry"/></mxCell><mxCell id="NSmlfN2d5O3RcSM8qMXl-306" style="shape=partialRectangle;collapsible=0;dropTarget=0;pointerEvents=0;fillColor=none;top=0;left=0;bottom=0;right=0;points=[[0,0.5],[1,0.5]];portConstraint=eastwest;" parent="NSmlfN2d5O3RcSM8qMXl-296" vertex="1"><mxGeometry y="120" width="180" height="30" as="geometry"/></mxCell><mxCell id="NSmlfN2d5O3RcSM8qMXl-307" style="shape=partialRectangle;connectable=0;fillColor=none;top=0;left=0;bottom=0;right=0;editable=1;overflow=hidden;" parent="NSmlfN2d5O3RcSM8qMXl-306" vertex="1"><mxGeometry width="30" height="30" as="geometry"/></mxCell><mxCell id="NSmlfN2d5O3RcSM8qMXl-308" value="homeTelNo" style="shape=partialRectangle;connectable=0;fillColor=none;top=0;left=0;bottom=0;right=0;align=left;spacingLeft=6;overflow=hidden;" parent="NSmlfN2d5O3RcSM8qMXl-306" vertex="1"><mxGeometry x="30" width="150" height="30" as="geometry"/></mxCell><mxCell id="NSmlfN2d5O3RcSM8qMXl-309" style="shape=partialRectangle;collapsible=0;dropTarget=0;pointerEvents=0;fillColor=none;top=0;left=0;bottom=0;right=0;points=[[0,0.5],[1,0.5]];portConstraint=eastwest;" parent="NSmlfN2d5O3RcSM8qMXl-296" vertex="1"><mxGeometry y="150" width="180" height="30" as="geometry"/></mxCell><mxCell id="NSmlfN2d5O3RcSM8qMXl-310" style="shape=partialRectangle;connectable=0;fillColor=none;top=0;left=0;bottom=0;right=0;editable=1;overflow=hidden;" parent="NSmlfN2d5O3RcSM8qMXl-309" vertex="1"><mxGeometry width="30" height="30" as="geometry"/></mxCell><mxCell id="NSmlfN2d5O3RcSM8qMXl-311" value="workTelNo" style="shape=partialRectangle;connectable=0;fillColor=none;top=0;left=0;bottom=0;right=0;align=left;spacingLeft=6;overflow=hidden;" parent="NSmlfN2d5O3RcSM8qMXl-309" vertex="1"><mxGeometry x="30" width="150" height="30" as="geometry"/></mxCell><mxCell id="NSmlfN2d5O3RcSM8qMXl-312" value="Pet" style="shape=table;startSize=30;container=1;collapsible=1;childLayout=tableLayout;fixedRows=1;rowLines=0;fontStyle=1;align=center;resizeLast=1;gradientColor=none;" parent="1" vertex="1"><mxGeometry x="60" y="1940" width="185" height="340" as="geometry"/></mxCell><mxCell id="NSmlfN2d5O3RcSM8qMXl-313" value="" style="shape=partialRectangle;collapsible=0;dropTarget=0;pointerEvents=0;fillColor=none;top=0;left=0;bottom=1;right=0;points=[[0,0.5],[1,0.5]];portConstraint=eastwest;" parent="NSmlfN2d5O3RcSM8qMXl-312" vertex="1"><mxGeometry y="30" width="185" height="30" as="geometry"/></mxCell><mxCell id="NSmlfN2d5O3RcSM8qMXl-314" value="PK" style="shape=partialRectangle;connectable=0;fillColor=none;top=0;left=0;bottom=0;right=0;fontStyle=1;overflow=hidden;" parent="NSmlfN2d5O3RcSM8qMXl-313" vertex="1"><mxGeometry width="35" height="30" as="geometry"/></mxCell><mxCell id="NSmlfN2d5O3RcSM8qMXl-315" value="petID" style="shape=partialRectangle;connectable=0;fillColor=none;top=0;left=0;bottom=0;right=0;align=left;spacingLeft=6;fontStyle=5;overflow=hidden;" parent="NSmlfN2d5O3RcSM8qMXl-313" vertex="1"><mxGeometry x="35" width="150" height="30" as="geometry"/></mxCell><mxCell id="NSmlfN2d5O3RcSM8qMXl-316" value="" style="shape=partialRectangle;collapsible=0;dropTarget=0;pointerEvents=0;fillColor=none;top=0;left=0;bottom=0;right=0;points=[[0,0.5],[1,0.5]];portConstraint=eastwest;" parent="NSmlfN2d5O3RcSM8qMXl-312" vertex="1"><mxGeometry y="60" width="185" height="30" as="geometry"/></mxCell><mxCell id="NSmlfN2d5O3RcSM8qMXl-317" value="UK" style="shape=partialRectangle;connectable=0;fillColor=none;top=0;left=0;bottom=0;right=0;editable=1;overflow=hidden;" parent="NSmlfN2d5O3RcSM8qMXl-316" vertex="1"><mxGeometry width="35" height="30" as="geometry"/></mxCell><mxCell id="NSmlfN2d5O3RcSM8qMXl-318" value="petRFID (UUID)" style="shape=partialRectangle;connectable=0;fillColor=none;top=0;left=0;bottom=0;right=0;align=left;spacingLeft=6;overflow=hidden;" parent="NSmlfN2d5O3RcSM8qMXl-316" vertex="1"><mxGeometry x="35" width="150" height="30" as="geometry"/></mxCell><mxCell id="NSmlfN2d5O3RcSM8qMXl-319" value="" style="shape=partialRectangle;collapsible=0;dropTarget=0;pointerEvents=0;fillColor=none;top=0;left=0;bottom=0;right=0;points=[[0,0.5],[1,0.5]];portConstraint=eastwest;" parent="NSmlfN2d5O3RcSM8qMXl-312" vertex="1"><mxGeometry y="90" width="185" height="30" as="geometry"/></mxCell><mxCell id="NSmlfN2d5O3RcSM8qMXl-320" value="" style="shape=partialRectangle;connectable=0;fillColor=none;top=0;left=0;bottom=0;right=0;editable=1;overflow=hidden;" parent="NSmlfN2d5O3RcSM8qMXl-319" vertex="1"><mxGeometry width="35" height="30" as="geometry"/></mxCell><mxCell id="NSmlfN2d5O3RcSM8qMXl-321" value="petName" style="shape=partialRectangle;connectable=0;fillColor=none;top=0;left=0;bottom=0;right=0;align=left;spacingLeft=6;overflow=hidden;" parent="NSmlfN2d5O3RcSM8qMXl-319" vertex="1"><mxGeometry x="35" width="150" height="30" as="geometry"/></mxCell><mxCell id="NSmlfN2d5O3RcSM8qMXl-328" style="shape=partialRectangle;collapsible=0;dropTarget=0;pointerEvents=0;fillColor=none;top=0;left=0;bottom=0;right=0;points=[[0,0.5],[1,0.5]];portConstraint=eastwest;" parent="NSmlfN2d5O3RcSM8qMXl-312" vertex="1"><mxGeometry y="120" width="185" height="30" as="geometry"/></mxCell><mxCell id="NSmlfN2d5O3RcSM8qMXl-329" style="shape=partialRectangle;connectable=0;fillColor=none;top=0;left=0;bottom=0;right=0;editable=1;overflow=hidden;" parent="NSmlfN2d5O3RcSM8qMXl-328" vertex="1"><mxGeometry width="35" height="30" as="geometry"/></mxCell><mxCell id="NSmlfN2d5O3RcSM8qMXl-330" value="dateOfBirth" style="shape=partialRectangle;connectable=0;fillColor=none;top=0;left=0;bottom=0;right=0;align=left;spacingLeft=6;overflow=hidden;" parent="NSmlfN2d5O3RcSM8qMXl-328" vertex="1"><mxGeometry x="35" width="150" height="30" as="geometry"/></mxCell><mxCell id="NSmlfN2d5O3RcSM8qMXl-322" style="shape=partialRectangle;collapsible=0;dropTarget=0;pointerEvents=0;fillColor=none;top=0;left=0;bottom=0;right=0;points=[[0,0.5],[1,0.5]];portConstraint=eastwest;" parent="NSmlfN2d5O3RcSM8qMXl-312" vertex="1"><mxGeometry y="150" width="185" height="30" as="geometry"/></mxCell><mxCell id="NSmlfN2d5O3RcSM8qMXl-323" style="shape=partialRectangle;connectable=0;fillColor=none;top=0;left=0;bottom=0;right=0;editable=1;overflow=hidden;" parent="NSmlfN2d5O3RcSM8qMXl-322" vertex="1"><mxGeometry width="35" height="30" as="geometry"/></mxCell><mxCell id="NSmlfN2d5O3RcSM8qMXl-324" value="gender" style="shape=partialRectangle;connectable=0;fillColor=none;top=0;left=0;bottom=0;right=0;align=left;spacingLeft=6;overflow=hidden;" parent="NSmlfN2d5O3RcSM8qMXl-322" vertex="1"><mxGeometry x="35" width="150" height="30" as="geometry"/></mxCell><mxCell id="NSmlfN2d5O3RcSM8qMXl-325" style="shape=partialRectangle;collapsible=0;dropTarget=0;pointerEvents=0;fillColor=none;top=0;left=0;bottom=0;right=0;points=[[0,0.5],[1,0.5]];portConstraint=eastwest;" parent="NSmlfN2d5O3RcSM8qMXl-312" vertex="1"><mxGeometry y="180" width="185" height="30" as="geometry"/></mxCell><mxCell id="NSmlfN2d5O3RcSM8qMXl-326" style="shape=partialRectangle;connectable=0;fillColor=none;top=0;left=0;bottom=0;right=0;editable=1;overflow=hidden;" parent="NSmlfN2d5O3RcSM8qMXl-325" vertex="1"><mxGeometry width="35" height="30" as="geometry"/></mxCell><mxCell id="NSmlfN2d5O3RcSM8qMXl-327" value="colour" style="shape=partialRectangle;connectable=0;fillColor=none;top=0;left=0;bottom=0;right=0;align=left;spacingLeft=6;overflow=hidden;" parent="NSmlfN2d5O3RcSM8qMXl-325" vertex="1"><mxGeometry x="35" width="150" height="30" as="geometry"/></mxCell><mxCell id="NSmlfN2d5O3RcSM8qMXl-334" style="shape=partialRectangle;collapsible=0;dropTarget=0;pointerEvents=0;fillColor=none;top=0;left=0;bottom=0;right=0;points=[[0,0.5],[1,0.5]];portConstraint=eastwest;" parent="NSmlfN2d5O3RcSM8qMXl-312" vertex="1"><mxGeometry y="210" width="185" height="30" as="geometry"/></mxCell><mxCell id="NSmlfN2d5O3RcSM8qMXl-335" style="shape=partialRectangle;connectable=0;fillColor=none;top=0;left=0;bottom=0;right=0;editable=1;overflow=hidden;" parent="NSmlfN2d5O3RcSM8qMXl-334" vertex="1"><mxGeometry width="35" height="30" as="geometry"/></mxCell><mxCell id="NSmlfN2d5O3RcSM8qMXl-336" value="weight" style="shape=partialRectangle;connectable=0;fillColor=none;top=0;left=0;bottom=0;right=0;align=left;spacingLeft=6;overflow=hidden;" parent="NSmlfN2d5O3RcSM8qMXl-334" vertex="1"><mxGeometry x="35" width="150" height="30" as="geometry"/></mxCell><mxCell id="NSmlfN2d5O3RcSM8qMXl-337" style="shape=partialRectangle;collapsible=0;dropTarget=0;pointerEvents=0;fillColor=none;top=0;left=0;bottom=0;right=0;points=[[0,0.5],[1,0.5]];portConstraint=eastwest;" parent="NSmlfN2d5O3RcSM8qMXl-312" vertex="1"><mxGeometry y="240" width="185" height="30" as="geometry"/></mxCell><mxCell id="NSmlfN2d5O3RcSM8qMXl-338" style="shape=partialRectangle;connectable=0;fillColor=none;top=0;left=0;bottom=0;right=0;editable=1;overflow=hidden;" parent="NSmlfN2d5O3RcSM8qMXl-337" vertex="1"><mxGeometry width="35" height="30" as="geometry"/></mxCell><mxCell id="NSmlfN2d5O3RcSM8qMXl-339" value="height" style="shape=partialRectangle;connectable=0;fillColor=none;top=0;left=0;bottom=0;right=0;align=left;spacingLeft=6;overflow=hidden;" parent="NSmlfN2d5O3RcSM8qMXl-337" vertex="1"><mxGeometry x="35" width="150" height="30" as="geometry"/></mxCell><mxCell id="NSmlfN2d5O3RcSM8qMXl-340" style="shape=partialRectangle;collapsible=0;dropTarget=0;pointerEvents=0;fillColor=none;top=0;left=0;bottom=0;right=0;points=[[0,0.5],[1,0.5]];portConstraint=eastwest;" parent="NSmlfN2d5O3RcSM8qMXl-312" vertex="1"><mxGeometry y="270" width="185" height="30" as="geometry"/></mxCell><mxCell id="NSmlfN2d5O3RcSM8qMXl-341" style="shape=partialRectangle;connectable=0;fillColor=none;top=0;left=0;bottom=0;right=0;editable=1;overflow=hidden;" parent="NSmlfN2d5O3RcSM8qMXl-340" vertex="1"><mxGeometry width="35" height="30" as="geometry"/></mxCell><mxCell id="NSmlfN2d5O3RcSM8qMXl-342" value="otherPetDetails" style="shape=partialRectangle;connectable=0;fillColor=none;top=0;left=0;bottom=0;right=0;align=left;spacingLeft=6;overflow=hidden;" parent="NSmlfN2d5O3RcSM8qMXl-340" vertex="1"><mxGeometry x="35" width="150" height="30" as="geometry"/></mxCell><mxCell id="NSmlfN2d5O3RcSM8qMXl-343" style="shape=partialRectangle;collapsible=0;dropTarget=0;pointerEvents=0;fillColor=none;top=0;left=0;bottom=0;right=0;points=[[0,0.5],[1,0.5]];portConstraint=eastwest;" parent="NSmlfN2d5O3RcSM8qMXl-312" vertex="1"><mxGeometry y="300" width="185" height="30" as="geometry"/></mxCell><mxCell id="NSmlfN2d5O3RcSM8qMXl-344" style="shape=partialRectangle;connectable=0;fillColor=none;top=0;left=0;bottom=0;right=0;editable=1;overflow=hidden;" parent="NSmlfN2d5O3RcSM8qMXl-343" vertex="1"><mxGeometry width="35" height="30" as="geometry"/></mxCell><mxCell id="NSmlfN2d5O3RcSM8qMXl-345" value="sendReminder (boolean)" style="shape=partialRectangle;connectable=0;fillColor=none;top=0;left=0;bottom=0;right=0;align=left;spacingLeft=6;overflow=hidden;" parent="NSmlfN2d5O3RcSM8qMXl-343" vertex="1"><mxGeometry x="35" width="150" height="30" as="geometry"/></mxCell><mxCell id="NSmlfN2d5O3RcSM8qMXl-178" value="BusinessAddress" style="shape=table;startSize=30;container=1;collapsible=1;childLayout=tableLayout;fixedRows=1;rowLines=0;fontStyle=1;align=center;resizeLast=1;" parent="1" vertex="1"><mxGeometry x="160" y="1190" width="180" height="180" as="geometry"><mxRectangle x="40" y="1000" width="70" height="30" as="alternateBounds"/></mxGeometry></mxCell><mxCell id="vVbPWBPVX9zCDqlzGk4p-14" style="shape=partialRectangle;collapsible=0;dropTarget=0;pointerEvents=0;fillColor=none;top=0;left=0;bottom=0;right=0;points=[[0,0.5],[1,0.5]];portConstraint=eastwest;" parent="NSmlfN2d5O3RcSM8qMXl-178" vertex="1"><mxGeometry y="30" width="180" height="30" as="geometry"/></mxCell><mxCell id="vVbPWBPVX9zCDqlzGk4p-15" value="PK" style="shape=partialRectangle;connectable=0;fillColor=none;top=0;left=0;bottom=0;right=0;editable=1;overflow=hidden;" parent="vVbPWBPVX9zCDqlzGk4p-14" vertex="1"><mxGeometry width="30" height="30" as="geometry"/></mxCell><mxCell id="vVbPWBPVX9zCDqlzGk4p-16" value="BusinessAddressId" style="shape=partialRectangle;connectable=0;fillColor=none;top=0;left=0;bottom=0;right=0;align=left;spacingLeft=6;overflow=hidden;" parent="vVbPWBPVX9zCDqlzGk4p-14" vertex="1"><mxGeometry x="30" width="150" height="30" as="geometry"/></mxCell><mxCell id="NSmlfN2d5O3RcSM8qMXl-185" value="" style="shape=partialRectangle;collapsible=0;dropTarget=0;pointerEvents=0;fillColor=none;top=0;left=0;bottom=0;right=0;points=[[0,0.5],[1,0.5]];portConstraint=eastwest;" parent="NSmlfN2d5O3RcSM8qMXl-178" vertex="1"><mxGeometry y="60" width="180" height="30" as="geometry"/></mxCell><mxCell id="NSmlfN2d5O3RcSM8qMXl-186" value="" style="shape=partialRectangle;connectable=0;fillColor=none;top=0;left=0;bottom=0;right=0;editable=1;overflow=hidden;" parent="NSmlfN2d5O3RcSM8qMXl-185" vertex="1"><mxGeometry width="30" height="30" as="geometry"/></mxCell><mxCell id="NSmlfN2d5O3RcSM8qMXl-187" value="businessFullName" style="shape=partialRectangle;connectable=0;fillColor=none;top=0;left=0;bottom=0;right=0;align=left;spacingLeft=6;overflow=hidden;" parent="NSmlfN2d5O3RcSM8qMXl-185" vertex="1"><mxGeometry x="30" width="150" height="30" as="geometry"/></mxCell><mxCell id="NSmlfN2d5O3RcSM8qMXl-188" value="" style="shape=partialRectangle;collapsible=0;dropTarget=0;pointerEvents=0;fillColor=none;top=0;left=0;bottom=0;right=0;points=[[0,0.5],[1,0.5]];portConstraint=eastwest;" parent="NSmlfN2d5O3RcSM8qMXl-178" vertex="1"><mxGeometry y="90" width="180" height="30" as="geometry"/></mxCell><mxCell id="NSmlfN2d5O3RcSM8qMXl-189" value="" style="shape=partialRectangle;connectable=0;fillColor=none;top=0;left=0;bottom=0;right=0;editable=1;overflow=hidden;" parent="NSmlfN2d5O3RcSM8qMXl-188" vertex="1"><mxGeometry width="30" height="30" as="geometry"/></mxCell><mxCell id="NSmlfN2d5O3RcSM8qMXl-190" value="businessShortName" style="shape=partialRectangle;connectable=0;fillColor=none;top=0;left=0;bottom=0;right=0;align=left;spacingLeft=6;overflow=hidden;" parent="NSmlfN2d5O3RcSM8qMXl-188" vertex="1"><mxGeometry x="30" width="150" height="30" as="geometry"/></mxCell><mxCell id="NSmlfN2d5O3RcSM8qMXl-191" style="shape=partialRectangle;collapsible=0;dropTarget=0;pointerEvents=0;fillColor=none;top=0;left=0;bottom=0;right=0;points=[[0,0.5],[1,0.5]];portConstraint=eastwest;" parent="NSmlfN2d5O3RcSM8qMXl-178" vertex="1"><mxGeometry y="120" width="180" height="30" as="geometry"/></mxCell><mxCell id="NSmlfN2d5O3RcSM8qMXl-192" style="shape=partialRectangle;connectable=0;fillColor=none;top=0;left=0;bottom=0;right=0;editable=1;overflow=hidden;" parent="NSmlfN2d5O3RcSM8qMXl-191" vertex="1"><mxGeometry width="30" height="30" as="geometry"/></mxCell><mxCell id="NSmlfN2d5O3RcSM8qMXl-193" value="department" style="shape=partialRectangle;connectable=0;fillColor=none;top=0;left=0;bottom=0;right=0;align=left;spacingLeft=6;overflow=hidden;" parent="NSmlfN2d5O3RcSM8qMXl-191" vertex="1"><mxGeometry x="30" width="150" height="30" as="geometry"/></mxCell><mxCell id="NSmlfN2d5O3RcSM8qMXl-194" style="shape=partialRectangle;collapsible=0;dropTarget=0;pointerEvents=0;fillColor=none;top=0;left=0;bottom=0;right=0;points=[[0,0.5],[1,0.5]];portConstraint=eastwest;" parent="NSmlfN2d5O3RcSM8qMXl-178" vertex="1"><mxGeometry y="150" width="180" height="30" as="geometry"/></mxCell><mxCell id="NSmlfN2d5O3RcSM8qMXl-195" style="shape=partialRectangle;connectable=0;fillColor=none;top=0;left=0;bottom=0;right=0;editable=1;overflow=hidden;" parent="NSmlfN2d5O3RcSM8qMXl-194" vertex="1"><mxGeometry width="30" height="30" as="geometry"/></mxCell><mxCell id="NSmlfN2d5O3RcSM8qMXl-196" value="office" style="shape=partialRectangle;connectable=0;fillColor=none;top=0;left=0;bottom=0;right=0;align=left;spacingLeft=6;overflow=hidden;" parent="NSmlfN2d5O3RcSM8qMXl-194" vertex="1"><mxGeometry x="30" width="150" height="30" as="geometry"/></mxCell><mxCell id="NSmlfN2d5O3RcSM8qMXl-255" value="PetType (Enum)" style="shape=table;startSize=30;container=1;collapsible=1;childLayout=tableLayout;fixedRows=1;rowLines=0;fontStyle=1;align=center;resizeLast=1;" parent="1" vertex="1"><mxGeometry x="60" y="2320" width="180" height="240" as="geometry"><mxRectangle x="40" y="1000" width="70" height="30" as="alternateBounds"/></mxGeometry></mxCell><mxCell id="NSmlfN2d5O3RcSM8qMXl-256" value="" style="shape=partialRectangle;collapsible=0;dropTarget=0;pointerEvents=0;fillColor=none;top=0;left=0;bottom=0;right=0;points=[[0,0.5],[1,0.5]];portConstraint=eastwest;" parent="NSmlfN2d5O3RcSM8qMXl-255" vertex="1"><mxGeometry y="30" width="180" height="30" as="geometry"/></mxCell><mxCell id="NSmlfN2d5O3RcSM8qMXl-257" value="" style="shape=partialRectangle;connectable=0;fillColor=none;top=0;left=0;bottom=0;right=0;editable=1;overflow=hidden;" parent="NSmlfN2d5O3RcSM8qMXl-256" vertex="1"><mxGeometry width="30" height="30" as="geometry"/></mxCell><mxCell id="NSmlfN2d5O3RcSM8qMXl-258" value="Dog" style="shape=partialRectangle;connectable=0;fillColor=none;top=0;left=0;bottom=0;right=0;align=left;spacingLeft=6;overflow=hidden;" parent="NSmlfN2d5O3RcSM8qMXl-256" vertex="1"><mxGeometry x="30" width="150" height="30" as="geometry"/></mxCell><mxCell id="NSmlfN2d5O3RcSM8qMXl-259" style="shape=partialRectangle;collapsible=0;dropTarget=0;pointerEvents=0;fillColor=none;top=0;left=0;bottom=0;right=0;points=[[0,0.5],[1,0.5]];portConstraint=eastwest;" parent="NSmlfN2d5O3RcSM8qMXl-255" vertex="1"><mxGeometry y="60" width="180" height="30" as="geometry"/></mxCell><mxCell id="NSmlfN2d5O3RcSM8qMXl-260" style="shape=partialRectangle;connectable=0;fillColor=none;top=0;left=0;bottom=0;right=0;editable=1;overflow=hidden;" parent="NSmlfN2d5O3RcSM8qMXl-259" vertex="1"><mxGeometry width="30" height="30" as="geometry"/></mxCell><mxCell id="NSmlfN2d5O3RcSM8qMXl-261" value="Cat" style="shape=partialRectangle;connectable=0;fillColor=none;top=0;left=0;bottom=0;right=0;align=left;spacingLeft=6;overflow=hidden;" parent="NSmlfN2d5O3RcSM8qMXl-259" vertex="1"><mxGeometry x="30" width="150" height="30" as="geometry"/></mxCell><mxCell id="NSmlfN2d5O3RcSM8qMXl-268" style="shape=partialRectangle;collapsible=0;dropTarget=0;pointerEvents=0;fillColor=none;top=0;left=0;bottom=0;right=0;points=[[0,0.5],[1,0.5]];portConstraint=eastwest;" parent="NSmlfN2d5O3RcSM8qMXl-255" vertex="1"><mxGeometry y="90" width="180" height="30" as="geometry"/></mxCell><mxCell id="NSmlfN2d5O3RcSM8qMXl-269" style="shape=partialRectangle;connectable=0;fillColor=none;top=0;left=0;bottom=0;right=0;editable=1;overflow=hidden;" parent="NSmlfN2d5O3RcSM8qMXl-268" vertex="1"><mxGeometry width="30" height="30" as="geometry"/></mxCell><mxCell id="NSmlfN2d5O3RcSM8qMXl-270" value="Hamster" style="shape=partialRectangle;connectable=0;fillColor=none;top=0;left=0;bottom=0;right=0;align=left;spacingLeft=6;overflow=hidden;" parent="NSmlfN2d5O3RcSM8qMXl-268" vertex="1"><mxGeometry x="30" width="150" height="30" as="geometry"/></mxCell><mxCell id="NSmlfN2d5O3RcSM8qMXl-271" style="shape=partialRectangle;collapsible=0;dropTarget=0;pointerEvents=0;fillColor=none;top=0;left=0;bottom=0;right=0;points=[[0,0.5],[1,0.5]];portConstraint=eastwest;" parent="NSmlfN2d5O3RcSM8qMXl-255" vertex="1"><mxGeometry y="120" width="180" height="30" as="geometry"/></mxCell><mxCell id="NSmlfN2d5O3RcSM8qMXl-272" style="shape=partialRectangle;connectable=0;fillColor=none;top=0;left=0;bottom=0;right=0;editable=1;overflow=hidden;" parent="NSmlfN2d5O3RcSM8qMXl-271" vertex="1"><mxGeometry width="30" height="30" as="geometry"/></mxCell><mxCell id="NSmlfN2d5O3RcSM8qMXl-273" value="Horse" style="shape=partialRectangle;connectable=0;fillColor=none;top=0;left=0;bottom=0;right=0;align=left;spacingLeft=6;overflow=hidden;" parent="NSmlfN2d5O3RcSM8qMXl-271" vertex="1"><mxGeometry x="30" width="150" height="30" as="geometry"/></mxCell><mxCell id="NSmlfN2d5O3RcSM8qMXl-274" style="shape=partialRectangle;collapsible=0;dropTarget=0;pointerEvents=0;fillColor=none;top=0;left=0;bottom=0;right=0;points=[[0,0.5],[1,0.5]];portConstraint=eastwest;" parent="NSmlfN2d5O3RcSM8qMXl-255" vertex="1"><mxGeometry y="150" width="180" height="30" as="geometry"/></mxCell><mxCell id="NSmlfN2d5O3RcSM8qMXl-275" style="shape=partialRectangle;connectable=0;fillColor=none;top=0;left=0;bottom=0;right=0;editable=1;overflow=hidden;" parent="NSmlfN2d5O3RcSM8qMXl-274" vertex="1"><mxGeometry width="30" height="30" as="geometry"/></mxCell><mxCell id="NSmlfN2d5O3RcSM8qMXl-276" value="Fish" style="shape=partialRectangle;connectable=0;fillColor=none;top=0;left=0;bottom=0;right=0;align=left;spacingLeft=6;overflow=hidden;" parent="NSmlfN2d5O3RcSM8qMXl-274" vertex="1"><mxGeometry x="30" width="150" height="30" as="geometry"/></mxCell><mxCell id="NSmlfN2d5O3RcSM8qMXl-265" style="shape=partialRectangle;collapsible=0;dropTarget=0;pointerEvents=0;fillColor=none;top=0;left=0;bottom=0;right=0;points=[[0,0.5],[1,0.5]];portConstraint=eastwest;" parent="NSmlfN2d5O3RcSM8qMXl-255" vertex="1"><mxGeometry y="180" width="180" height="30" as="geometry"/></mxCell><mxCell id="NSmlfN2d5O3RcSM8qMXl-266" style="shape=partialRectangle;connectable=0;fillColor=none;top=0;left=0;bottom=0;right=0;editable=1;overflow=hidden;" parent="NSmlfN2d5O3RcSM8qMXl-265" vertex="1"><mxGeometry width="30" height="30" as="geometry"/></mxCell><mxCell id="NSmlfN2d5O3RcSM8qMXl-267" value="Lizard" style="shape=partialRectangle;connectable=0;fillColor=none;top=0;left=0;bottom=0;right=0;align=left;spacingLeft=6;overflow=hidden;" parent="NSmlfN2d5O3RcSM8qMXl-265" vertex="1"><mxGeometry x="30" width="150" height="30" as="geometry"/></mxCell><mxCell id="NSmlfN2d5O3RcSM8qMXl-262" style="shape=partialRectangle;collapsible=0;dropTarget=0;pointerEvents=0;fillColor=none;top=0;left=0;bottom=0;right=0;points=[[0,0.5],[1,0.5]];portConstraint=eastwest;" parent="NSmlfN2d5O3RcSM8qMXl-255" vertex="1"><mxGeometry y="210" width="180" height="30" as="geometry"/></mxCell><mxCell id="NSmlfN2d5O3RcSM8qMXl-263" style="shape=partialRectangle;connectable=0;fillColor=none;top=0;left=0;bottom=0;right=0;editable=1;overflow=hidden;" parent="NSmlfN2d5O3RcSM8qMXl-262" vertex="1"><mxGeometry width="30" height="30" as="geometry"/></mxCell><mxCell id="NSmlfN2d5O3RcSM8qMXl-264" value="Snake" style="shape=partialRectangle;connectable=0;fillColor=none;top=0;left=0;bottom=0;right=0;align=left;spacingLeft=6;overflow=hidden;" parent="NSmlfN2d5O3RcSM8qMXl-262" vertex="1"><mxGeometry x="30" width="150" height="30" as="geometry"/></mxCell><mxCell id="NSmlfN2d5O3RcSM8qMXl-397" value="Medication" style="shape=table;startSize=30;container=1;collapsible=1;childLayout=tableLayout;fixedRows=1;rowLines=0;fontStyle=1;align=center;resizeLast=1;gradientColor=none;" parent="1" vertex="1"><mxGeometry x="60" y="2600" width="185" height="280" as="geometry"/></mxCell><mxCell id="NSmlfN2d5O3RcSM8qMXl-398" value="" style="shape=partialRectangle;collapsible=0;dropTarget=0;pointerEvents=0;fillColor=none;top=0;left=0;bottom=1;right=0;points=[[0,0.5],[1,0.5]];portConstraint=eastwest;" parent="NSmlfN2d5O3RcSM8qMXl-397" vertex="1"><mxGeometry y="30" width="185" height="30" as="geometry"/></mxCell><mxCell id="NSmlfN2d5O3RcSM8qMXl-399" value="PK" style="shape=partialRectangle;connectable=0;fillColor=none;top=0;left=0;bottom=0;right=0;fontStyle=1;overflow=hidden;" parent="NSmlfN2d5O3RcSM8qMXl-398" vertex="1"><mxGeometry width="35" height="30" as="geometry"/></mxCell><mxCell id="NSmlfN2d5O3RcSM8qMXl-400" value="medicationId" style="shape=partialRectangle;connectable=0;fillColor=none;top=0;left=0;bottom=0;right=0;align=left;spacingLeft=6;fontStyle=5;overflow=hidden;" parent="NSmlfN2d5O3RcSM8qMXl-398" vertex="1"><mxGeometry x="35" width="150" height="30" as="geometry"/></mxCell><mxCell id="NSmlfN2d5O3RcSM8qMXl-401" value="" style="shape=partialRectangle;collapsible=0;dropTarget=0;pointerEvents=0;fillColor=none;top=0;left=0;bottom=0;right=0;points=[[0,0.5],[1,0.5]];portConstraint=eastwest;" parent="NSmlfN2d5O3RcSM8qMXl-397" vertex="1"><mxGeometry y="60" width="185" height="30" as="geometry"/></mxCell><mxCell id="NSmlfN2d5O3RcSM8qMXl-402" value="UK" style="shape=partialRectangle;connectable=0;fillColor=none;top=0;left=0;bottom=0;right=0;editable=1;overflow=hidden;" parent="NSmlfN2d5O3RcSM8qMXl-401" vertex="1"><mxGeometry width="35" height="30" as="geometry"/></mxCell><mxCell id="NSmlfN2d5O3RcSM8qMXl-403" value="medicationUUID" style="shape=partialRectangle;connectable=0;fillColor=none;top=0;left=0;bottom=0;right=0;align=left;spacingLeft=6;overflow=hidden;" parent="NSmlfN2d5O3RcSM8qMXl-401" vertex="1"><mxGeometry x="35" width="150" height="30" as="geometry"/></mxCell><mxCell id="NSmlfN2d5O3RcSM8qMXl-404" value="" style="shape=partialRectangle;collapsible=0;dropTarget=0;pointerEvents=0;fillColor=none;top=0;left=0;bottom=0;right=0;points=[[0,0.5],[1,0.5]];portConstraint=eastwest;" parent="NSmlfN2d5O3RcSM8qMXl-397" vertex="1"><mxGeometry y="90" width="185" height="30" as="geometry"/></mxCell><mxCell id="NSmlfN2d5O3RcSM8qMXl-405" value="" style="shape=partialRectangle;connectable=0;fillColor=none;top=0;left=0;bottom=0;right=0;editable=1;overflow=hidden;" parent="NSmlfN2d5O3RcSM8qMXl-404" vertex="1"><mxGeometry width="35" height="30" as="geometry"/></mxCell><mxCell id="NSmlfN2d5O3RcSM8qMXl-406" value="medicationName" style="shape=partialRectangle;connectable=0;fillColor=none;top=0;left=0;bottom=0;right=0;align=left;spacingLeft=6;overflow=hidden;" parent="NSmlfN2d5O3RcSM8qMXl-404" vertex="1"><mxGeometry x="35" width="150" height="30" as="geometry"/></mxCell><mxCell id="NSmlfN2d5O3RcSM8qMXl-479" style="shape=partialRectangle;collapsible=0;dropTarget=0;pointerEvents=0;fillColor=none;top=0;left=0;bottom=0;right=0;points=[[0,0.5],[1,0.5]];portConstraint=eastwest;" parent="NSmlfN2d5O3RcSM8qMXl-397" vertex="1"><mxGeometry y="120" width="185" height="30" as="geometry"/></mxCell><mxCell id="NSmlfN2d5O3RcSM8qMXl-480" style="shape=partialRectangle;connectable=0;fillColor=none;top=0;left=0;bottom=0;right=0;editable=1;overflow=hidden;" parent="NSmlfN2d5O3RcSM8qMXl-479" vertex="1"><mxGeometry width="35" height="30" as="geometry"/></mxCell><mxCell id="NSmlfN2d5O3RcSM8qMXl-481" value="medicationClass" style="shape=partialRectangle;connectable=0;fillColor=none;top=0;left=0;bottom=0;right=0;align=left;spacingLeft=6;overflow=hidden;" parent="NSmlfN2d5O3RcSM8qMXl-479" vertex="1"><mxGeometry x="35" width="150" height="30" as="geometry"/></mxCell><mxCell id="NSmlfN2d5O3RcSM8qMXl-407" style="shape=partialRectangle;collapsible=0;dropTarget=0;pointerEvents=0;fillColor=none;top=0;left=0;bottom=0;right=0;points=[[0,0.5],[1,0.5]];portConstraint=eastwest;" parent="NSmlfN2d5O3RcSM8qMXl-397" vertex="1"><mxGeometry y="150" width="185" height="30" as="geometry"/></mxCell><mxCell id="NSmlfN2d5O3RcSM8qMXl-408" style="shape=partialRectangle;connectable=0;fillColor=none;top=0;left=0;bottom=0;right=0;editable=1;overflow=hidden;" parent="NSmlfN2d5O3RcSM8qMXl-407" vertex="1"><mxGeometry width="35" height="30" as="geometry"/></mxCell><mxCell id="NSmlfN2d5O3RcSM8qMXl-409" value="normalDosage" style="shape=partialRectangle;connectable=0;fillColor=none;top=0;left=0;bottom=0;right=0;align=left;spacingLeft=6;overflow=hidden;" parent="NSmlfN2d5O3RcSM8qMXl-407" vertex="1"><mxGeometry x="35" width="150" height="30" as="geometry"/></mxCell><mxCell id="NSmlfN2d5O3RcSM8qMXl-410" style="shape=partialRectangle;collapsible=0;dropTarget=0;pointerEvents=0;fillColor=none;top=0;left=0;bottom=0;right=0;points=[[0,0.5],[1,0.5]];portConstraint=eastwest;" parent="NSmlfN2d5O3RcSM8qMXl-397" vertex="1"><mxGeometry y="180" width="185" height="30" as="geometry"/></mxCell><mxCell id="NSmlfN2d5O3RcSM8qMXl-411" style="shape=partialRectangle;connectable=0;fillColor=none;top=0;left=0;bottom=0;right=0;editable=1;overflow=hidden;" parent="NSmlfN2d5O3RcSM8qMXl-410" vertex="1"><mxGeometry width="35" height="30" as="geometry"/></mxCell><mxCell id="NSmlfN2d5O3RcSM8qMXl-412" value="maximumDosage" style="shape=partialRectangle;connectable=0;fillColor=none;top=0;left=0;bottom=0;right=0;align=left;spacingLeft=6;overflow=hidden;" parent="NSmlfN2d5O3RcSM8qMXl-410" vertex="1"><mxGeometry x="35" width="150" height="30" as="geometry"/></mxCell><mxCell id="NSmlfN2d5O3RcSM8qMXl-422" style="shape=partialRectangle;collapsible=0;dropTarget=0;pointerEvents=0;fillColor=none;top=0;left=0;bottom=0;right=0;points=[[0,0.5],[1,0.5]];portConstraint=eastwest;" parent="NSmlfN2d5O3RcSM8qMXl-397" vertex="1"><mxGeometry y="210" width="185" height="30" as="geometry"/></mxCell><mxCell id="NSmlfN2d5O3RcSM8qMXl-423" style="shape=partialRectangle;connectable=0;fillColor=none;top=0;left=0;bottom=0;right=0;editable=1;overflow=hidden;" parent="NSmlfN2d5O3RcSM8qMXl-422" vertex="1"><mxGeometry width="35" height="30" as="geometry"/></mxCell><mxCell id="NSmlfN2d5O3RcSM8qMXl-424" value="unitCost" style="shape=partialRectangle;connectable=0;fillColor=none;top=0;left=0;bottom=0;right=0;align=left;spacingLeft=6;overflow=hidden;" parent="NSmlfN2d5O3RcSM8qMXl-422" vertex="1"><mxGeometry x="35" width="150" height="30" as="geometry"/></mxCell><mxCell id="NSmlfN2d5O3RcSM8qMXl-425" style="shape=partialRectangle;collapsible=0;dropTarget=0;pointerEvents=0;fillColor=none;top=0;left=0;bottom=0;right=0;points=[[0,0.5],[1,0.5]];portConstraint=eastwest;" parent="NSmlfN2d5O3RcSM8qMXl-397" vertex="1"><mxGeometry y="240" width="185" height="30" as="geometry"/></mxCell><mxCell id="NSmlfN2d5O3RcSM8qMXl-426" style="shape=partialRectangle;connectable=0;fillColor=none;top=0;left=0;bottom=0;right=0;editable=1;overflow=hidden;" parent="NSmlfN2d5O3RcSM8qMXl-425" vertex="1"><mxGeometry width="35" height="30" as="geometry"/></mxCell><mxCell id="NSmlfN2d5O3RcSM8qMXl-427" value="otherDetails" style="shape=partialRectangle;connectable=0;fillColor=none;top=0;left=0;bottom=0;right=0;align=left;spacingLeft=6;overflow=hidden;" parent="NSmlfN2d5O3RcSM8qMXl-425" vertex="1"><mxGeometry x="35" width="150" height="30" as="geometry"/></mxCell></root></mxGraphModel></diagram></mxfile>